<?xml version="1.0" encoding="UTF-8"?>
<svg version="1.1" xmlns="http://www.w3.org/2000/svg" width="1448" height="1086">
<path d="M0 0 C477.84 0 955.68 0 1448 0 C1448 358.38 1448 716.76 1448 1086 C970.16 1086 492.32 1086 0 1086 C0 727.62 0 369.24 0 0 Z " fill="#FDFDFD" transform="translate(0,0)"/>
<path d="M0 0 C3.41580537 0.4879722 4.63326145 1.03569032 7.0625 3.4375 C7.55469131 5.93060589 7.55469131 5.93060589 7.54351807 8.96134949 C7.54901672 10.10979843 7.55451538 11.25824738 7.56018066 12.4414978 C7.53860901 14.33286972 7.53860901 14.33286972 7.51660156 16.26245117 C7.51547335 17.60277777 7.51610644 18.94310685 7.51837158 20.28343201 C7.51952071 23.92385012 7.49598 27.56374259 7.46807575 31.20403838 C7.44309479 35.00768743 7.44072272 38.81134811 7.43597412 42.61506653 C7.42353456 49.81869077 7.39069988 57.02207262 7.35057616 64.22559005 C7.30588879 72.42619486 7.28387908 80.62681115 7.26379442 88.82750738 C7.22196795 105.69764521 7.15159706 122.56754698 7.0625 139.4375 C7.83980469 139.72882813 8.61710938 140.02015625 9.41796875 140.3203125 C13.03965803 141.85030236 14.17573693 142.94349431 16.0625 146.4375 C16.85199449 152.12345527 16.87603529 156.83848236 14.25 162 C13.1671875 163.2065625 13.1671875 163.2065625 12.0625 164.4375 C11.546875 165.035625 11.03125 165.63375 10.5 166.25 C7.48823906 168.73797642 4.34488337 168.57259466 0.625 168.5625 C-0.79619141 168.56636719 -0.79619141 168.56636719 -2.24609375 168.5703125 C-4.9375 168.4375 -4.9375 168.4375 -6.78076172 167.76318359 C-9.93350542 167.28709574 -11.42016707 168.48572472 -14.13671875 170.09375 C-15.16829102 170.69654785 -16.19986328 171.2993457 -17.26269531 171.92041016 C-18.37225586 172.5860498 -19.48181641 173.25168945 -20.625 173.9375 C-21.79075328 174.62518372 -22.9571042 175.31185524 -24.12402344 175.99755859 C-27.14729074 177.77891375 -30.1609363 179.57584727 -33.17108154 181.37927246 C-34.86315868 182.39296354 -36.55678858 183.40406135 -38.25048828 184.41503906 C-43.47986622 187.53746182 -48.70178576 190.67199489 -53.91796875 193.81640625 C-68.02920882 202.31750731 -82.24968412 210.63424851 -96.48461914 218.92602539 C-104.47734157 223.58220999 -112.45906169 228.25690393 -120.4375 232.9375 C-130.762237 238.994455 -141.09515997 245.03703199 -151.43945312 251.06054688 C-152.35662109 251.59486328 -153.27378906 252.12917969 -154.21875 252.6796875 C-155.41081055 253.37360596 -155.41081055 253.37360596 -156.62695312 254.08154297 C-158.27056542 255.0461058 -159.89245791 256.04809761 -161.49804688 257.07470703 C-165.02425143 259.04461034 -168.06640197 259.26217319 -171.9375 258.4375 C-175.43969947 256.94964738 -178.28185005 255.17645724 -180.9375 252.4375 C-182.05668453 248.94558197 -181.78201253 245.73037929 -181.5078125 242.10546875 C-181.45417845 240.06970172 -181.40214511 238.03389201 -181.3515625 235.99804688 C-181.21905574 232.80978703 -181.06253438 229.62557801 -180.87304688 226.44018555 C-179.74706225 215.08155991 -179.74706225 215.08155991 -183.21490479 204.69418335 C-186.64888808 201.67856627 -190.63630665 199.98453538 -194.84991455 198.31564331 C-198.19185598 196.90985486 -201.20322001 195.01010547 -204.2890625 193.12109375 C-205.50087981 192.40916607 -206.7144267 191.70017419 -207.9296875 190.99414062 C-208.5287793 190.64456299 -209.12787109 190.29498535 -209.74511719 189.93481445 C-210.96015691 189.22625892 -212.17532695 188.51792682 -213.390625 187.80981445 C-221.9814419 182.80194643 -230.4844354 177.67476545 -238.9375 172.4375 C-239.71472412 171.97835205 -240.49194824 171.5192041 -241.29272461 171.04614258 C-243.25 169.8125 -243.25 169.8125 -245.9375 167.4375 C-246.68596247 163.27937515 -246.29411998 161.97242997 -243.9375 158.4375 C-238.8771301 158.99206108 -235.15980634 161.38396544 -230.875 163.9375 C-230.06281006 164.41453369 -229.25062012 164.89156738 -228.41381836 165.38305664 C-219.08962235 170.88618592 -209.84684212 176.5277678 -200.60331726 182.16505432 C-195.67119048 185.17280775 -190.73171206 188.16694798 -185.76953125 191.125 C-184.84068115 191.67873291 -183.91183105 192.23246582 -182.95483398 192.80297852 C-181.23836621 193.82416821 -179.52050538 194.84302132 -177.80102539 195.85913086 C-177.04942139 196.30651611 -176.29781738 196.75390137 -175.5234375 197.21484375 C-174.8742334 197.59890381 -174.2250293 197.98296387 -173.55615234 198.37866211 C-171.9375 199.4375 -171.9375 199.4375 -169.9375 201.4375 C-169.6590271 203.38638306 -169.6590271 203.38638306 -169.61865234 205.79541016 C-169.59878265 206.69619293 -169.57891296 207.59697571 -169.55844116 208.52505493 C-169.54688995 209.49905243 -169.53533875 210.47304993 -169.5234375 211.4765625 C-169.50407135 212.47255463 -169.4847052 213.46854675 -169.4647522 214.49472046 C-169.40485035 217.6838925 -169.35852862 220.87310043 -169.3125 224.0625 C-169.27432999 226.22137013 -169.23527884 228.38022488 -169.1953125 230.5390625 C-169.0991403 235.83840534 -169.01412411 241.13784043 -168.9375 246.4375 C-165.09860137 245.86206984 -162.43115958 244.76132252 -159.14453125 242.71484375 C-158.26732422 242.17666016 -157.39011719 241.63847656 -156.48632812 241.08398438 C-155.1318457 240.23803711 -155.1318457 240.23803711 -153.75 239.375 C-151.94641752 238.25522821 -150.1405395 237.13914255 -148.33203125 236.02734375 C-147.53643799 235.53097412 -146.74084473 235.03460449 -145.92114258 234.52319336 C-143.9375 233.4375 -143.9375 233.4375 -141.9375 233.4375 C-141.96368408 232.16632324 -141.98986816 230.89514648 -142.0168457 229.58544922 C-142.10755196 224.85564878 -142.16482374 220.12592476 -142.2121582 215.39550781 C-142.23725583 213.35077981 -142.27134164 211.30614111 -142.31469727 209.26171875 C-142.37555815 206.31748389 -142.4037573 203.37443804 -142.42578125 200.4296875 C-142.45158768 199.5200827 -142.4773941 198.61047791 -142.50398254 197.67330933 C-142.50585794 193.40045608 -142.38459046 190.39932476 -139.6652832 186.97851562 C-137.40060172 184.86889378 -135.50389223 183.25190259 -132.8046875 181.7890625 C-132.01296143 181.34973389 -131.22123535 180.91040527 -130.40551758 180.45776367 C-129.54982178 179.99732666 -128.69412598 179.53688965 -127.8125 179.0625 C-125.91666975 178.01145425 -124.02220424 176.95794415 -122.12890625 175.90234375 C-121.12359863 175.34401855 -120.11829102 174.78569336 -119.08251953 174.21044922 C-113.58246298 171.10988947 -108.17092077 167.86127718 -102.75 164.625 C-92.64813604 158.61225999 -82.50145908 152.68639449 -72.30395508 146.83666992 C-70.35872099 145.71996443 -68.42394151 144.58480094 -66.50135803 143.42953491 C-63.94910613 141.94141447 -61.36456828 140.73431653 -58.64883423 139.57371521 C-50.52324489 136.01513958 -50.52324489 136.01513958 -44.9980278 129.44908142 C-43.58489515 123.69265099 -44.06717963 117.83088418 -44.375 111.96484375 C-44.40718359 110.07268409 -44.43046917 108.18035426 -44.4453125 106.28797913 C-44.50198882 101.32471713 -44.65240428 96.36932177 -44.83123779 91.40911865 C-45.10925499 83.47085743 -45.27718827 75.53193867 -45.38162231 67.58966255 C-45.43650353 64.82749619 -45.55190669 62.07265012 -45.67358398 59.31272888 C-46.03091204 47.18186463 -46.03091204 47.18186463 -43.02368164 42.38430786 C-40.77910352 40.13329394 -38.49581076 38.31312253 -35.9375 36.4375 C-34.71484171 35.1149909 -33.52077682 33.76464711 -32.375 32.375 C-29.38032544 28.8823657 -26.18312463 25.66396117 -22.90625 22.4375 C-20.38834396 19.8796272 -18.07103196 17.17565191 -15.734375 14.453125 C-13.19404563 11.60353814 -10.47640811 8.95116305 -7.734375 6.296875 C-5.87285429 4.46683549 -5.87285429 4.46683549 -4.38671875 2.23046875 C-2.9375 0.4375 -2.9375 0.4375 0 0 Z " fill="#0C1541" transform="translate(472.9375,477.5625)"/>
<path d="M0 0 C5.00230198 2.45567552 8.49851535 5.9970307 11 11 C11.56735892 15.65048294 11.4598631 19.09730577 9.3125 23.3125 C7.04242517 25.95069508 4.87110768 28.0355579 2 30 C1.34 30 0.68 30 0 30 C0.01110306 30.95355881 0.02220612 31.90711761 0.03364563 32.88957214 C0.1350392 41.87947243 0.20997363 50.8692566 0.25906086 59.85959911 C0.28514583 64.48159315 0.3205234 69.10312531 0.37719727 73.72485352 C0.43155689 78.18581488 0.46142882 82.64633223 0.47438622 87.10759926 C0.48361907 88.80889183 0.50164913 90.51016031 0.52865028 92.21126366 C0.56499504 94.59604615 0.56994337 96.97899842 0.56762695 99.36401367 C0.59459152 100.4170594 0.59459152 100.4170594 0.62210083 101.49137878 C0.58172205 105.33792391 0.10778917 106.87012072 -2.38235474 109.87059021 C-4.86387634 111.88926573 -7.29218676 113.61311126 -10.04296875 115.2421875 C-11.02152832 115.82597168 -12.00008789 116.40975586 -13.00830078 117.01123047 C-14.05743652 117.62627441 -15.10657227 118.24131836 -16.1875 118.875 C-17.28304199 119.52484863 -18.37858398 120.17469727 -19.50732422 120.84423828 C-28.61629326 126.23087304 -37.78256517 131.51886241 -46.95874023 136.79003906 C-53.73781413 140.68493637 -60.47048547 144.64151355 -67.16015625 148.6875 C-74.90881737 153.36911433 -82.72273355 157.94263895 -90.52294922 162.53759766 C-92.68668503 163.81502497 -94.84634719 165.09889945 -97.00390625 166.38671875 C-98.07511719 167.02222656 -99.14632812 167.65773438 -100.25 168.3125 C-101.14203125 168.84488281 -102.0340625 169.37726563 -102.953125 169.92578125 C-105 171 -105 171 -107 171 C-106.99000725 172.16724861 -106.99000725 172.16724861 -106.97981262 173.358078 C-106.91964371 180.69985755 -106.87399639 188.04151715 -106.84456348 195.38347912 C-106.82892289 199.15785956 -106.80771439 202.93203586 -106.77368164 206.70629883 C-106.74103024 210.35026868 -106.7231349 213.99404247 -106.71536827 217.63814735 C-106.70983508 219.02679848 -106.69902997 220.41543916 -106.68280983 221.80400658 C-106.66096144 223.75228745 -106.65977396 225.70076658 -106.65942383 227.64916992 C-106.64943108 229.31129768 -106.64943108 229.31129768 -106.63923645 231.00700378 C-107.3515065 236.91619715 -110.88325123 240.07463367 -115.1875 243.875 C-116.17363281 244.7515625 -117.15976563 245.628125 -118.17578125 246.53125 C-121.04198962 249.03670462 -123.91182156 251.53788172 -126.78515625 254.03515625 C-130.23720189 257.097553 -133.61434165 260.24011296 -137.00024414 263.37524414 C-143.58043857 269.46794623 -150.1656545 275.55742016 -156.9375 281.4375 C-160.34688705 284.39883619 -163.67790175 287.44156852 -167 290.5 C-171.60606358 294.73912651 -176.26734087 298.90292526 -181 303 C-182.50064092 304.31176715 -184.00064969 305.62425786 -185.5 306.9375 C-186.66666667 307.95833333 -187.83333333 308.97916667 -189 310 C-185.76511699 312.68227678 -182.53892942 314.97782961 -178.89453125 317.06640625 C-177.9209668 317.6281958 -176.94740234 318.18998535 -175.94433594 318.76879883 C-174.91083008 319.36072021 -173.87732422 319.9526416 -172.8125 320.5625 C-165.58091423 324.74275413 -158.3645937 328.93558644 -151.25 333.3125 C-150.20477173 333.95493652 -150.20477173 333.95493652 -149.13842773 334.61035156 C-147.62563947 335.54073223 -146.11303454 336.47141103 -144.60058594 337.40234375 C-128.54888619 347.2636208 -112.42296273 356.977319 -96.12890625 366.43359375 C-89.79433721 370.11236844 -83.48201494 373.82813648 -77.17776489 377.55856323 C-75.99119722 378.26048471 -74.80425616 378.96177542 -73.61691284 379.66238403 C-62.25194913 386.36970534 -62.25194913 386.36970534 -57 390 C-57.66 393.3 -58.32 396.6 -59 400 C-63.65588461 399.06882308 -65.78836326 398.14779762 -69.69921875 395.7109375 C-70.81337158 395.02386719 -71.92752441 394.33679688 -73.07543945 393.62890625 C-73.66378571 393.26168457 -74.25213196 392.89446289 -74.85830688 392.51611328 C-77.98656161 390.5646009 -81.13026735 388.63830225 -84.2734375 386.7109375 C-84.91599991 386.3163031 -85.55856232 385.9216687 -86.22059631 385.51507568 C-93.67988498 380.94754129 -101.25960564 376.59800196 -108.85620117 372.26318359 C-116.33691462 367.98796415 -123.7343208 363.58734594 -131.11203003 359.13781738 C-134.12136629 357.32418943 -137.13503632 355.51780034 -140.1484375 353.7109375 C-141.33775225 352.99743648 -142.52704243 352.28389449 -143.71630859 351.5703125 C-144.61141144 351.03325684 -144.61141144 351.03325684 -145.52459717 350.48535156 C-147.44308837 349.33414294 -149.36144806 348.18271541 -151.27978516 347.03125 C-157.49630941 343.3001302 -163.71427634 339.57149982 -169.9375 335.8515625 C-175.06060489 332.7884754 -180.17824268 329.71652212 -185.28955078 326.63378906 C-187.04430278 325.5760697 -188.80040332 324.52058301 -190.55810547 323.46777344 C-192.81552539 322.11304669 -195.06516073 320.74636448 -197.3125 319.375 C-198.26358643 318.80845703 -198.26358643 318.80845703 -199.23388672 318.23046875 C-202.99270304 315.91220074 -205.58271754 313.69838384 -208 310 C-208.50615788 306.63445282 -208.50615788 306.63445282 -208.5146637 302.71276855 C-208.52160922 301.98923549 -208.52855475 301.26570243 -208.53571075 300.52024412 C-208.55397554 298.10107115 -208.54371858 295.68287943 -208.53344727 293.26367188 C-208.54050599 291.52721931 -208.54925081 289.79077289 -208.55955505 288.05433655 C-208.58206279 283.34153652 -208.57910631 278.6290721 -208.57023358 273.91623878 C-208.56512516 269.98216135 -208.57241498 266.04814707 -208.57970566 262.11407614 C-208.59670868 252.83429544 -208.59313429 243.55467917 -208.57641602 234.27490234 C-208.55948802 224.69932542 -208.57533763 215.12420414 -208.6076389 205.54867697 C-208.63432078 197.32772493 -208.64161477 189.10691485 -208.63312382 180.88592386 C-208.62819126 175.97568047 -208.63042815 171.06571136 -208.65091133 166.15550232 C-208.66924686 161.53914658 -208.66333603 156.92344731 -208.63871193 152.307127 C-208.63369753 150.61281602 -208.63721015 148.91845521 -208.64986038 147.22418404 C-208.66576501 144.91110933 -208.65086824 142.60020341 -208.62818909 140.28723145 C-208.62760278 138.99307564 -208.62701647 137.69891983 -208.62641239 136.36554718 C-207.68320467 131.29794295 -204.75113211 129.20624648 -200.65087891 126.38183594 C-199.85085449 125.92067383 -199.05083008 125.45951172 -198.2265625 124.984375 C-196.87788086 124.19836914 -196.87788086 124.19836914 -195.50195312 123.39648438 C-194.55255859 122.85314453 -193.60316406 122.30980469 -192.625 121.75 C-190.62736722 120.58894925 -188.62997167 119.42749024 -186.6328125 118.265625 C-185.1772998 117.42354492 -185.1772998 117.42354492 -183.69238281 116.56445312 C-180.27344275 114.57782201 -176.88347734 112.54622565 -173.5 110.5 C-161.43089413 103.23451836 -149.29213726 96.08425473 -137.125 88.984375 C-123.37279558 80.95583966 -109.68502242 72.83652487 -96.09716797 64.53222656 C-93.06829797 62.68226877 -90.03578559 60.83858205 -87 59 C-86.27377441 58.55688477 -85.54754883 58.11376953 -84.79931641 57.65722656 C-80.50029927 55.09896458 -76.96440431 53.80104953 -72 55 C-69.75215987 56.15551621 -67.81029998 57.51444615 -65.7734375 59.01171875 C-61.49917063 62.07594669 -56.98624756 64.74963021 -52.49609375 67.48388672 C-51.82964844 67.89525879 -51.16320312 68.30663086 -50.4765625 68.73046875 C-49.87924316 69.09551514 -49.28192383 69.46056152 -48.66650391 69.83666992 C-46.85334311 71.10237622 -45.41285203 72.29400878 -44 74 C-43.64643274 76.72836065 -43.4901759 79.14881341 -43.5 81.875 C-43.47164062 82.58269531 -43.44328125 83.29039062 -43.4140625 84.01953125 C-43.40098096 87.53192566 -43.77585644 89.67748776 -45.7890625 92.57421875 C-50.29723171 96.38784317 -55.74477827 99.07275018 -60.875 101.9375 C-63.22537739 103.26736733 -65.57187411 104.60400095 -67.91796875 105.94140625 C-68.51118423 106.27881836 -69.10439972 106.61623047 -69.71559143 106.96386719 C-75.60659818 110.32444559 -81.40517093 113.83099186 -87.1875 117.375 C-88.14527344 117.96152344 -89.10304688 118.54804688 -90.08984375 119.15234375 C-91.91389524 120.27014689 -93.73764239 121.38844688 -95.56103516 122.50732422 C-98.82131054 124.50265191 -102.09496109 126.47487666 -105.375 128.4375 C-105.94009277 128.77587891 -106.50518555 129.11425781 -107.08740234 129.46289062 C-108.32262274 130.20220487 -109.55798274 130.9412859 -110.79345703 131.68017578 C-113.47603339 133.28473517 -116.15803421 134.89025301 -118.83984375 136.49609375 C-119.89510254 137.12507568 -120.95036133 137.75405762 -122.03759766 138.40209961 C-124.22223009 139.71818838 -126.39523725 141.05376852 -128.55615234 142.40844727 C-134.22562963 145.93324081 -139.44551286 148.85686089 -145.91674805 150.59960938 C-150.60785074 152.91567785 -155.03046067 156.1405161 -156.7620697 161.24758911 C-157.1319892 163.78585393 -157.27049694 166.23634538 -157.3203125 168.80078125 C-157.36441254 169.71273758 -157.40851257 170.62469391 -157.45394897 171.56428528 C-157.83588017 181.04660067 -157.51152546 190.52904818 -157 200 C-156.20762939 200.30164063 -155.41525879 200.60328125 -154.59887695 200.9140625 C-150.58716668 202.59035065 -148.76744037 205.08277502 -147 209 C-145.91307042 214.34769354 -146.44769965 218.70590829 -149.1875 223.4375 C-151.4793109 226.58001079 -153.24051872 228.69235434 -157 230 C-162.3798787 230.65085822 -166.60044437 230.69977781 -171.5 228.25 C-176.33237895 223.90085895 -178.13266135 220.32357754 -178.5 213.8125 C-178.47724376 208.10826925 -176.68899203 205.40630404 -172.82421875 201.36328125 C-171 200 -171 200 -168 200 C-168.01332367 199.43481155 -168.02664734 198.86962311 -168.04037476 198.28730774 C-168.17323056 192.3988829 -168.26365716 186.51088435 -168.32958984 180.62133789 C-168.35974284 178.42422185 -168.40067263 176.22722599 -168.45263672 174.03051758 C-168.52551526 170.87030388 -168.55947147 167.71168259 -168.5859375 164.55078125 C-168.61690521 163.57039383 -168.64787292 162.59000641 -168.67977905 161.57991028 C-168.68305886 154.91748418 -168.68305886 154.91748418 -166.74105835 152.30899048 C-165.17089844 150.97045898 -165.17089844 150.97045898 -162 149 C-160.90429688 148.31421875 -159.80859375 147.6284375 -158.6796875 146.921875 C-157.41419859 146.19313726 -156.14575801 145.46951022 -154.875 144.75 C-146.84462327 140.11653082 -138.91545688 135.32586432 -131 130.5 C-123.52936274 125.94949514 -116.05776905 121.40499477 -108.5 117 C-100.90275091 112.57070451 -93.38858741 108.00661327 -85.875 103.4375 C-84.6505692 102.69341473 -83.42612276 101.94935521 -82.20166016 101.20532227 C-77.11038275 98.11089215 -72.0210663 95.01333912 -66.9375 91.90625 C-65.58344957 91.08314209 -64.22929557 90.26020452 -62.875 89.4375 C-61.75867188 88.75558594 -60.64234375 88.07367188 -59.4921875 87.37109375 C-57 86 -57 86 -55 86 C-55 83.36 -55 80.72 -55 78 C-55.68320312 77.75636719 -56.36640625 77.51273437 -57.0703125 77.26171875 C-61.17926758 75.49212876 -64.90665604 73.09084206 -68.65234375 70.65820312 C-71.69731935 68.81448713 -73.80806464 68.00288125 -77.3828125 67.94921875 C-82.06875119 69.31046876 -85.85142572 71.47025776 -90 74 C-90.84320801 74.50128418 -91.68641602 75.00256836 -92.55517578 75.51904297 C-95.04366629 77.00157804 -97.5227714 78.49874352 -100 80 C-101.18445992 80.71166352 -102.36930575 81.42268549 -103.5546875 82.1328125 C-105.23702085 83.14221251 -106.91927506 84.15175696 -108.59838867 85.16650391 C-114.82458406 88.9215234 -121.1069565 92.58026645 -127.384552 96.24835205 C-136.81278255 101.7579906 -146.21780149 107.29442435 -155.51123047 113.02978516 C-162.37550706 117.25779327 -169.32603543 121.33612682 -176.27807617 125.41772461 C-182.00352846 128.78897646 -187.64124207 132.24166609 -193.171875 135.92578125 C-195 137 -195 137 -197 137 C-196.67 191.12 -196.34 245.24 -196 301 C-191.05 296.38 -186.1 291.76 -181 287 C-176.875 283.375 -176.875 283.375 -175.078125 281.828125 C-172.21485607 279.30930947 -169.42217018 276.71678496 -166.625 274.125 C-159.93587454 267.92872707 -153.21721378 261.76892691 -146.3125 255.8125 C-141.60479429 251.7196783 -137.07929203 247.42955759 -132.54223633 243.1496582 C-129.45298082 240.24544151 -126.34016444 237.37123107 -123.16015625 234.56640625 C-122.60078369 234.07213135 -122.04141113 233.57785645 -121.46508789 233.06860352 C-120 232 -120 232 -118 232 C-118.00888245 231.20930618 -118.01776489 230.41861237 -118.0269165 229.60395813 C-118.10713727 222.14446502 -118.16800202 214.68518169 -118.20724869 207.22536945 C-118.22810438 203.39037453 -118.25638415 199.55573669 -118.30175781 195.72094727 C-118.34528908 192.01860747 -118.36915229 188.31661066 -118.37950897 184.61403465 C-118.38688742 183.20303131 -118.40129614 181.79204628 -118.42292023 180.38118935 C-118.45204479 178.40185552 -118.45363467 176.42217498 -118.45410156 174.44262695 C-118.46298401 173.31677689 -118.47186646 172.19092682 -118.48101807 171.03096008 C-117.88997764 167.30673421 -116.59095298 165.68806045 -114 163 C-111.5559082 161.29345703 -111.5559082 161.29345703 -108.80078125 159.7578125 C-107.76937012 159.17443115 -106.73795898 158.5910498 -105.67529297 157.98999023 C-104.56557129 157.37454346 -103.45584961 156.75909668 -102.3125 156.125 C-99.94391139 154.78991757 -97.57958224 153.44735576 -95.21484375 152.10546875 C-94.61218689 151.76477859 -94.00953003 151.42408844 -93.38861084 151.07307434 C-87.31944199 147.63491854 -81.34327719 144.04757755 -75.375 140.4375 C-68.36038729 136.20546192 -61.33779508 131.99190136 -54.24763489 127.88728333 C-52.28522912 126.7405065 -50.33145786 125.57868857 -48.39079285 124.39549255 C-43.04273655 121.16962976 -37.79494913 118.43600964 -31.98657227 116.12866211 C-19.63602934 111.00482041 -19.63602934 111.00482041 -11.16105652 101.15895462 C-7.88869927 90.64085603 -9.05783902 78.89504072 -9.68249512 68.06134033 C-9.90052448 63.7657524 -9.96162752 59.46800511 -10.03710938 55.16796875 C-10.20712524 46.76897864 -10.54738999 38.38849396 -11 30 C-11.79237061 29.70432129 -12.58474121 29.40864258 -13.40112305 29.10400391 C-17.61442457 27.31419183 -19.2437999 24.10502739 -21 20 C-21.79384085 16.02337669 -21.24511016 12.72091223 -19.9375 8.875 C-14.65536136 1.03698782 -9.57498528 -1.69225571 0 0 Z " fill="#0B1441" transform="translate(336,320)"/>
<path d="M0 0 C1.12341797 -0.00708984 2.24683594 -0.01417969 3.40429688 -0.02148438 C9.94543231 0.02844796 14.86497928 0.70575135 20.8125 3.4375 C21.67617188 3.80230469 22.53984375 4.16710937 23.4296875 4.54296875 C37.18882295 11.13687969 47.44416375 21.21301131 52.84765625 35.5859375 C53.16605469 36.52695312 53.48445312 37.46796875 53.8125 38.4375 C54.05871094 39.15164063 54.30492187 39.86578125 54.55859375 40.6015625 C58.9424864 56.26264108 55.41545526 73.14766865 47.8203125 87.10546875 C40.81272388 98.73479384 30.66613251 106.29819461 17.8125 110.4375 C16.58273437 110.95376953 16.58273437 110.95376953 15.328125 111.48046875 C2.48939417 114.97545659 -13.19183779 113.9701001 -25.1640625 108.19921875 C-40.55017553 99.2339255 -49.87748594 86.45566221 -54.4609375 69.3515625 C-57.43306931 53.34040084 -54.97732974 37.27566372 -46.1875 23.4375 C-34.6049232 7.83500266 -19.44709271 -0.34948398 0 0 Z " fill="#071140" transform="translate(624.1875,481.5625)"/>
<path d="M0 0 C0.66 0 1.32 0 2 0 C2.16356105 15.42912038 2.28697996 30.85817587 2.3626852 46.2879591 C2.39877201 53.45244015 2.44796466 60.61638239 2.52807617 67.78051758 C2.59787307 74.02522733 2.64301337 80.26954689 2.65861946 86.51463586 C2.66774196 89.82132527 2.69283316 93.12663882 2.7401104 96.4330349 C2.79081615 100.12554908 2.79792788 103.81573949 2.79467773 107.50854492 C2.83242813 109.15068718 2.83242813 109.15068718 2.87094116 110.82600403 C2.80133933 118.11813392 2.80133933 118.11813392 0.45411873 120.70122719 C-1.43247986 122.01118469 -1.43247986 122.01118469 -3.31358242 122.98676014 C-6.40300301 124.84295764 -6.99215982 127.69652385 -8 131 C-7.99613281 132.91039062 -7.99613281 132.91039062 -7.9921875 134.859375 C-8.32628761 137.58388934 -8.66352216 138.68016441 -10.67333984 140.59057617 C-13.13717599 142.1871051 -15.65010036 143.57330782 -18.25 144.9375 C-20.27396595 146.06545854 -22.29737563 147.19441564 -24.3203125 148.32421875 C-25.40473633 148.9176709 -26.48916016 149.51112305 -27.60644531 150.12255859 C-32.89314529 153.0473588 -38.09619726 156.11206575 -43.30197144 159.17758179 C-45.14170506 160.25982695 -46.98378258 161.3379838 -48.82641602 162.4152832 C-57.33548624 167.3959458 -65.77404436 172.48482513 -74.1875 177.625 C-83.41454754 183.26071379 -92.69561743 188.78707831 -102.0625 194.1875 C-103.62230591 195.08686279 -103.62230591 195.08686279 -105.21362305 196.00439453 C-111.76081973 199.76006841 -118.35896316 203.41300763 -125 207 C-128.86071375 183.85005438 -128.86071375 183.85005438 -125 174 C-118.7543547 166.29729042 -108.90062997 162.69213965 -100.01074219 158.82861328 C-93.78483153 156.07241482 -88.10163976 152.44349564 -82.3125 148.875 C-80.10063004 147.55490035 -77.88578252 146.23977677 -75.66796875 144.9296875 C-74.02900635 143.96047363 -74.02900635 143.96047363 -72.35693359 142.97167969 C-66.63436528 139.6105552 -60.87954085 136.30598496 -55.125 133 C-40.47221859 126.18324068 -40.47221859 126.18324068 -29 116 C-28.9347738 113.3470028 -28.92995572 110.72080654 -28.96923828 108.06884766 C-28.98534852 106.36895103 -29.00104535 104.66905045 -29.01638794 102.96914673 C-29.02592625 102.06472462 -29.03546455 101.16030251 -29.0452919 100.22847366 C-29.09688314 94.42529742 -29.09107879 88.62182932 -29.09665108 82.81846046 C-29.10484496 77.72450563 -29.13239537 72.63208472 -29.20214844 67.53857422 C-29.26854811 62.60779127 -29.28053419 57.67944445 -29.25689316 52.74830246 C-29.25750018 50.87691862 -29.27737679 49.00542982 -29.31766129 47.13447952 C-29.64751073 30.97916812 -29.64751073 30.97916812 -24.19857597 24.58458519 C-21.92358994 22.23630202 -19.49448451 20.11121029 -17 18 C-15.47388058 16.4791778 -13.95809944 14.94777503 -12.4609375 13.3984375 C-11.10164821 12.05456548 -9.73973681 10.71333958 -8.375 9.375 C-6.98470672 8.01012342 -5.59656719 6.64304835 -4.2109375 5.2734375 C-3.31834229 4.39824463 -3.31834229 4.39824463 -2.40771484 3.50537109 C-0.89907337 2.03503432 -0.89907337 2.03503432 0 0 Z " fill="#F8F9FA" transform="translate(467,497)"/>
<path d="M0 0 C9.98049694 5.98270685 15.58361634 13.31519239 18.89453125 24.359375 C20.02850022 29.10946974 20.12008906 33.74430039 20.1015625 38.609375 C20.11767578 39.45177734 20.13378906 40.29417969 20.15039062 41.16210938 C20.15861244 51.84225173 16.28683447 61.95593747 8.8203125 69.71875 C-0.20580855 77.37133089 -10.81013844 79.65515129 -22.42578125 79.125 C-30.86239925 78.11504367 -35.28627423 74.59653827 -41.2109375 68.671875 C-41.5409375 82.201875 -41.8709375 95.731875 -42.2109375 109.671875 C-47.4909375 109.671875 -52.7709375 109.671875 -58.2109375 109.671875 C-58.2109375 73.371875 -58.2109375 37.071875 -58.2109375 -0.328125 C-53.2609375 -0.328125 -48.3109375 -0.328125 -43.2109375 -0.328125 C-43.2109375 2.641875 -43.2109375 5.611875 -43.2109375 8.671875 C-42.5509375 8.671875 -41.8909375 8.671875 -41.2109375 8.671875 C-40.96859375 8.07632813 -40.72625 7.48078125 -40.4765625 6.8671875 C-38.96783599 4.25019893 -37.48355071 3.18571556 -34.9609375 1.546875 C-34.21328125 1.04929687 -33.465625 0.55171875 -32.6953125 0.0390625 C-22.56832609 -5.53396461 -10.25868002 -4.92195429 0 0 Z " fill="#06103E" transform="translate(753.2109375,515.328125)"/>
<path d="M0 0 C15.84 0 31.68 0 48 0 C48 16.5 48 33 48 50 C44.37 50 40.74 50 37 50 C37 40.43 37 30.86 37 21 C36.34 21 35.68 21 35 21 C34.75636719 21.57234375 34.51273437 22.1446875 34.26171875 22.734375 C32.77482702 25.40433538 31.01916092 27.13829007 28.8125 29.25 C25.28247029 32.63783937 22.05841228 36.19204095 18.8581543 39.88574219 C15.21877513 44.02672544 11.39625087 47.99818465 7.60546875 52 C4.51572986 55.27525116 1.47413914 58.57511719 -1.4765625 61.9765625 C-5.16125744 66.22048601 -9.00518394 70.30023461 -12.875 74.375 C-17.91720015 79.70743186 -22.9139391 85.06754999 -27.796875 90.546875 C-30.50187211 93.55882214 -33.24932075 96.52981518 -36 99.5 C-39.6059825 103.39664104 -43.19693374 107.30487126 -46.75 111.25 C-47.46414063 112.03503906 -48.17828125 112.82007813 -48.9140625 113.62890625 C-50.35176224 115.26314547 -51.74038971 116.94143186 -53.0859375 118.65234375 C-53.75882813 119.48894531 -54.43171875 120.32554687 -55.125 121.1875 C-55.99511719 122.32251953 -55.99511719 122.32251953 -56.8828125 123.48046875 C-59 125 -59 125 -62.2890625 124.9140625 C-66.13454077 123.96686048 -69.59962839 122.72143275 -73.25 121.1875 C-74.55801023 120.64572448 -75.86661061 120.10537166 -77.17578125 119.56640625 C-77.81725098 119.30102051 -78.4587207 119.03563477 -79.11962891 118.76220703 C-83.36290683 117.04219746 -87.68381338 115.52547136 -92 114 C-92.22042969 114.5465625 -92.44085938 115.093125 -92.66796875 115.65625 C-94.42315271 118.74455023 -96.79097888 121.04210292 -99.3125 123.5 C-100.0230957 124.20962891 -100.0230957 124.20962891 -100.74804688 124.93359375 C-102.88560985 127.04483926 -105.0277233 129.02113957 -107.41796875 130.84375 C-110.26623443 133.22233193 -112.51209753 135.8249295 -114.92089844 138.63671875 C-118.67726461 142.90651966 -122.65753293 146.95823999 -126.65283203 151.00292969 C-127.64321205 152.01006241 -128.62816917 153.02255369 -129.60791016 154.04003906 C-131.04177288 155.52852061 -132.49127905 156.99999878 -133.9453125 158.46875 C-134.79625488 159.33951172 -135.64719727 160.21027344 -136.52392578 161.10742188 C-139 163 -139 163 -141.61816406 163.44116211 C-144.29587213 162.94519876 -145.25324143 162.37186043 -147.1640625 160.47265625 C-147.72399902 159.93165283 -148.28393555 159.39064941 -148.86083984 158.83325195 C-149.4430127 158.24890381 -150.02518555 157.66455566 -150.625 157.0625 C-151.85666006 155.86698826 -153.09106801 154.67430139 -154.328125 153.484375 C-154.94107422 152.89333984 -155.55402344 152.30230469 -156.18554688 151.69335938 C-159.63731243 148.47195923 -163.35848313 145.60198501 -167.0859375 142.70703125 C-167.71757812 142.14371094 -168.34921875 141.58039063 -169 141 C-169 140.34 -169 139.68 -169 139 C-175.01774589 143.77879821 -180.77359711 148.61512393 -186.1328125 154.125 C-187.8829456 155.88245583 -189.681158 157.51011416 -191.5625 159.125 C-195.64935849 162.63727046 -199.57148232 166.31314117 -203.5 170 C-211.34372703 177.35688815 -211.34372703 177.35688815 -215 180.5 C-219.52884734 184.39874684 -223.85862088 188.51039801 -228.21948242 192.59448242 C-236.58083804 200.42370453 -245.02811605 208.15544816 -253.5546875 215.8046875 C-255.25057592 217.32719436 -256.94305367 218.85350555 -258.6328125 220.3828125 C-263.0178089 224.34894357 -267.41829795 228.26229569 -272 232 C-277.70441896 227.63065782 -277.70441896 227.63065782 -278.90625 225.06640625 C-279 223 -279 223 -277.62890625 221.10546875 C-276.60603516 220.15607422 -276.60603516 220.15607422 -275.5625 219.1875 C-274.81484375 218.48496094 -274.0671875 217.78242187 -273.296875 217.05859375 C-270.65242142 214.68847974 -267.99463015 212.33790595 -265.3046875 210.01953125 C-258.12863848 203.73136626 -251.21258403 197.1373893 -244.24511719 190.62011719 C-237.89073731 184.67673307 -231.49361944 178.79160652 -225 173 C-219.4816355 168.06251598 -213.99860721 163.09026112 -208.5625 158.0625 C-200.13666276 150.2695895 -191.70702548 142.47931873 -183 135 C-182.08863281 134.18660156 -181.17726563 133.37320313 -180.23828125 132.53515625 C-178.79001953 131.28025391 -178.79001953 131.28025391 -177.3125 130 C-176.42175781 129.21625 -175.53101563 128.4325 -174.61328125 127.625 C-172 126 -172 126 -169.46875 125.9921875 C-166.41506954 127.2387849 -164.57418255 128.85013295 -162.1875 131.125 C-160.88619141 132.34316406 -160.88619141 132.34316406 -159.55859375 133.5859375 C-158.71425781 134.38257813 -157.86992187 135.17921875 -157 136 C-154.95348808 137.82634044 -152.88918103 139.62937644 -150.81640625 141.42578125 C-149.62843189 142.45535903 -148.44833805 143.49411898 -147.27734375 144.54296875 C-144.1292955 147.42655614 -144.1292955 147.42655614 -140 148 C-138.39844582 146.55332284 -138.39844582 146.55332284 -136.87524414 144.58422852 C-130.40733323 136.87282636 -123.21168898 129.83175576 -116.13891602 122.67895508 C-114.32902052 120.8422342 -112.52632984 118.9983874 -110.73071289 117.14770508 C-108.12740203 114.46571427 -105.50220349 111.80703322 -102.87109375 109.15234375 C-102.07094345 108.31920151 -101.27079315 107.48605927 -100.44639587 106.62767029 C-94.81274461 101.01408479 -94.81274461 101.01408479 -90.57666016 100.94067383 C-89.7263623 101.29025146 -88.87606445 101.6398291 -88 102 C-87.30777344 102.26296875 -86.61554688 102.5259375 -85.90234375 102.796875 C-85.25394531 103.11140625 -84.60554687 103.4259375 -83.9375 103.75 C-80.07507259 105.52711006 -76.19033508 107.21410419 -72.25 108.8125 C-71.18265625 109.25207031 -70.1153125 109.69164062 -69.015625 110.14453125 C-65.68229604 111.09012586 -64.21093801 111.26774899 -61 110 C-58.46757254 107.77165121 -58.46757254 107.77165121 -56.125 104.9375 C-55.32320312 104.01839844 -54.52140625 103.09929687 -53.6953125 102.15234375 C-52.79670848 101.1017049 -51.89828467 100.05091191 -51 99 C-45.69269919 92.84449311 -40.19412064 86.89977272 -34.60546875 81 C-31.51198088 77.72077476 -28.46666261 74.41671752 -25.51171875 71.01171875 C-21.88832836 66.83886731 -18.11589508 62.82100524 -14.3125 58.8125 C-12.90319066 57.32074238 -11.49434095 55.82855042 -10.0859375 54.3359375 C-9.3959668 53.6047168 -8.70599609 52.87349609 -7.99511719 52.12011719 C-1.56651299 45.2887419 4.81202783 38.41804772 10.9375 31.3125 C14.63690197 27.16468567 18.46930161 23.13756906 22.29052734 19.10205078 C22.8830127 18.47282715 23.47549805 17.84360352 24.0859375 17.1953125 C24.8910376 16.34477295 24.8910376 16.34477295 25.71240234 15.47705078 C27.09883887 14.01118021 27.09883887 14.01118021 28 12 C18.76 12 9.52 12 0 12 C0 8.04 0 4.08 0 0 Z " fill="#091241" transform="translate(458,404)"/>
<path d="M0 0 C8.25526925 5.37615882 13.73092674 14.08194443 16.53515625 23.45703125 C19.00262146 36.9555174 16.58593854 49.68048992 9 61 C3.59309908 68.13119734 -3.39540806 72.58218078 -12 75 C-24.96244955 76.63163701 -36.27629454 74.77080106 -47 67 C-55.38785879 59.43957022 -59.65142197 50.07167944 -60.2734375 38.8984375 C-60.67942818 26.05243979 -58.4739127 16.16958494 -50.01953125 6.0390625 C-36.69533233 -7.41399714 -16.39194151 -9.10920304 0 0 Z " fill="#FAFAFB" transform="translate(646,503)"/>
<path d="M0 0 C7.88611057 6.38774956 12.97247664 15.248406 14.46875 25.2734375 C14.46875 29.8934375 14.46875 34.5134375 14.46875 39.2734375 C-5.33125 39.2734375 -25.13125 39.2734375 -45.53125 39.2734375 C-41.83624669 50.62550706 -41.83624669 50.62550706 -33.71875 58.36328125 C-27.62741493 61.02824034 -21.12126233 61.4804244 -14.8125 59.359375 C-9.40467781 56.89404429 -6.24521509 54.57800563 -3.53125 49.2734375 C2.11895618 49.87452326 7.13039461 51.34872433 12.46875 53.2734375 C9.50062018 61.41787102 4.6285479 67.2974199 -3.125 71.203125 C-3.9190625 71.55632812 -4.713125 71.90953125 -5.53125 72.2734375 C-7.09166016 73.06234375 -7.09166016 73.06234375 -8.68359375 73.8671875 C-17.0017017 77.37858391 -29.30017965 76.97480391 -37.734375 74.01953125 C-48.9618114 68.78249111 -56.04401838 60.73677009 -60.53125 49.2734375 C-64.35292451 37.76839643 -63.3976905 24.91875572 -58.21875 14.0234375 C-53.14043456 4.61534444 -45.67506991 -2.3999197 -35.34375 -5.6640625 C-22.51311249 -8.54551923 -10.95242863 -7.47063805 0 0 Z " fill="#1F63F9" transform="translate(1321.53125,518.7265625)"/>
<path d="M0 0 C5.46588384 4.25391841 10.18432409 8.79047593 13.28515625 15.0703125 C13.59710937 15.68648437 13.9090625 16.30265625 14.23046875 16.9375 C17.90691954 25.86602334 17.16015625 30.71668409 17.16015625 41.1953125 C-2.63984375 41.1953125 -22.43984375 41.1953125 -42.83984375 41.1953125 C-39.15131921 52.56529862 -39.15131921 52.56529862 -30.9921875 60.28515625 C-24.98354685 62.87735311 -18.95749097 62.92887655 -12.65234375 61.4453125 C-6.57597695 58.74470503 -3.16243414 55.81815778 0.16015625 50.1953125 C5.16015625 51.86197917 10.16015625 53.52864583 15.16015625 55.1953125 C12.31983668 64.28433513 5.43129388 70.80377889 -2.75390625 75.23046875 C-12.22734633 79.16249504 -25.70985003 78.45651877 -35.35546875 75.28515625 C-45.35165835 70.90003534 -52.72900688 63.54819965 -57 53.453125 C-60.19735235 42.71596966 -61.25266638 27.36485804 -55.83984375 17.1953125 C-50.64683116 7.60821233 -43.50265893 0.64107686 -33.19921875 -3.11328125 C-22.45974492 -6.26044494 -9.65802531 -6.13756216 0 0 Z " fill="#071140" transform="translate(843.83984375,516.8046875)"/>
<path d="M0 0 C5.46117104 5.68560273 8.68654721 12.59552441 8.65283203 20.46801758 C8.65268097 21.64886429 8.65252991 22.829711 8.65237427 24.04634094 C8.6420517 25.31108749 8.63172913 26.57583405 8.62109375 27.87890625 C8.61826385 29.18139816 8.61543396 30.48389008 8.61251831 31.82585144 C8.60490822 35.27659884 8.5852826 38.72717598 8.56311035 42.17785645 C8.54259513 45.703834 8.53350449 49.22983925 8.5234375 52.75585938 C8.50203395 59.66544128 8.46687343 66.57488242 8.42578125 73.484375 C3.47578125 73.484375 -1.47421875 73.484375 -6.57421875 73.484375 C-6.57421875 70.184375 -6.57421875 66.884375 -6.57421875 63.484375 C-7.23421875 63.484375 -7.89421875 63.484375 -8.57421875 63.484375 C-8.82945313 64.09023438 -9.0846875 64.69609375 -9.34765625 65.3203125 C-12.0295036 70.05197947 -17.38410426 72.06783493 -22.32421875 73.796875 C-29.84606872 75.35158808 -39.47432744 75.84203193 -46.57421875 72.484375 C-52.66283252 68.24249151 -58.07693497 62.97079392 -59.57421875 55.484375 C-60.16464819 49.44382764 -59.84415083 43.72451852 -56.57421875 38.484375 C-49.61312371 30.75908789 -42.25297965 27.26135833 -32.01171875 26.296875 C-30.84503662 26.17626709 -30.84503662 26.17626709 -29.65478516 26.05322266 C-22.61675743 25.37861914 -15.64308111 25.27980985 -8.57421875 25.484375 C-9.16824746 17.46340472 -9.16824746 17.46340472 -13.07421875 10.796875 C-19.30490901 7.52576262 -25.66879034 7.83583957 -32.57421875 8.484375 C-35.72909336 9.75288611 -36.43699996 10.67545887 -38.57421875 13.484375 C-39.99012247 16.63938665 -39.99012247 16.63938665 -40.57421875 19.484375 C-46.78392648 19.81703791 -50.8568677 18.93466831 -56.57421875 16.484375 C-56.25955047 10.34834346 -53.47826618 6.03646269 -49.57421875 1.484375 C-36.25706731 -10.43334696 -14.30670902 -11.50216805 0 0 Z " fill="#2064F9" transform="translate(1152.57421875,519.515625)"/>
<path d="M0 0 C29.37 0 58.74 0 89 0 C89 5.28 89 10.56 89 16 C77.12 16 65.24 16 53 16 C53 47.02 53 78.04 53 110 C47.39 110 41.78 110 36 110 C36 78.98 36 47.96 36 16 C24.12 16 12.24 16 0 16 C0 10.72 0 5.44 0 0 Z " fill="#2366FA" transform="translate(953,483)"/>
<path d="M0 0 C0.68384766 0.00902344 1.36769531 0.01804687 2.07226562 0.02734375 C3.73583287 0.05061042 5.39921631 0.08646833 7.0625 0.125 C7.0625 0.785 7.0625 1.445 7.0625 2.125 C7.8875 2.16625 8.7125 2.2075 9.5625 2.25 C16.71472871 4.03805718 21.30647216 8.72958352 25.0546875 14.90234375 C28.39545469 22.27015977 28.32720074 29.06747161 28.2578125 37.05859375 C28.2549826 38.29166763 28.25215271 39.52474152 28.24923706 40.79518127 C28.2380786 44.71772125 28.21298151 48.6400295 28.1875 52.5625 C28.17633396 55.22851228 28.16833976 57.89452239 28.16015625 60.56054688 C28.13815338 67.08211998 28.10365297 73.60352075 28.0625 80.125 C22.7825 80.125 17.5025 80.125 12.0625 80.125 C12.04791748 78.61671631 12.03333496 77.10843262 12.01831055 75.55444336 C11.9602091 69.94271489 11.8829761 64.33138269 11.80004883 58.7199707 C11.76685534 56.29425502 11.73880616 53.86846314 11.71606445 51.44262695 C11.68241669 47.94970316 11.63009369 44.45747415 11.57421875 40.96484375 C11.56782883 39.88541 11.5614389 38.80597626 11.55485535 37.6938324 C11.43865928 31.70309883 10.82823724 27.45132728 8.0625 22.125 C7.5675 20.64 7.5675 20.64 7.0625 19.125 C1.69120094 16.26892632 -3.97011754 15.54751137 -9.9375 16.125 C-12.41237364 16.94334499 -14.58344092 17.97104947 -16.9375 19.125 C-17.9275 19.455 -18.9175 19.785 -19.9375 20.125 C-21.07959817 21.90728936 -21.07959817 21.90728936 -21.9375 24.125 C-22.2802597 24.88814011 -22.62301941 25.65128021 -22.97616577 26.43754578 C-23.98527022 29.25854384 -24.21191293 31.38973484 -24.25634766 34.37426758 C-24.27621735 35.39494827 -24.29608704 36.41562897 -24.31655884 37.46723938 C-24.32811005 38.5569957 -24.33966125 39.64675201 -24.3515625 40.76953125 C-24.37092865 41.8944548 -24.3902948 43.01937836 -24.4102478 44.1783905 C-24.4699371 47.76468366 -24.51638694 51.35100909 -24.5625 54.9375 C-24.60068953 57.37175864 -24.63974183 59.80600392 -24.6796875 62.24023438 C-24.77563014 68.20171407 -24.85970101 74.16325703 -24.9375 80.125 C-30.2175 80.125 -35.4975 80.125 -40.9375 80.125 C-40.9375 54.385 -40.9375 28.645 -40.9375 2.125 C-35.9875 2.125 -31.0375 2.125 -25.9375 2.125 C-25.6075 5.095 -25.2775 8.065 -24.9375 11.125 C-24.215625 10.3825 -23.49375 9.64 -22.75 8.875 C-15.61722453 1.90073065 -10.09157168 -0.17861189 0 0 Z " fill="#071140" transform="translate(916.9375,511.875)"/>
<path d="M0 0 C0.85142578 -0.01160156 1.70285156 -0.02320313 2.58007812 -0.03515625 C8.60726455 -0.00761389 13.59827485 1.14337668 19.1875 3.375 C19.1875 4.035 19.1875 4.695 19.1875 5.375 C20.2084375 5.684375 20.2084375 5.684375 21.25 6 C29.41430457 9.82158937 33.68532545 16.20325938 37.1875 24.375 C37.1875 25.365 37.1875 26.355 37.1875 27.375 C29.2675 28.86 29.2675 28.86 21.1875 30.375 C20.65125 29.1375 20.115 27.9 19.5625 26.625 C16.86931985 21.27643872 13.43289586 19.22231919 7.875 17.125 C-0.31593079 15.45904797 -5.42152917 15.83635503 -12.57421875 20.51953125 C-16.80913632 24.03015227 -19.09358998 28.21826994 -20.8125 33.375 C-21.86633687 45.00722464 -20.82678375 53.08108141 -13.16015625 62.37890625 C-8.96365421 66.33665763 -4.98981937 66.83698582 0.6875 67.0625 C7.07265635 66.80175158 11.50011324 65.79634589 16.1875 61.375 C18.41225406 58.92777054 19.79812677 56.36749618 21.1875 53.375 C27.05559507 53.89893706 31.73623741 55.13608858 37.1875 57.375 C35.67164719 66.09115364 29.82231258 72.80030554 22.75 77.875 C13.69900151 83.96804008 0.61678846 83.34000471 -9.8125 82.375 C-13.2936201 81.5635071 -15.8728642 80.38042951 -18.8125 78.375 C-19.84890625 77.72144531 -19.84890625 77.72144531 -20.90625 77.0546875 C-25.98334685 73.5878639 -29.45365961 69.48323642 -32.8125 64.375 C-33.204375 63.80910156 -33.59625 63.24320313 -34 62.66015625 C-39.833576 53.54519375 -39.77975002 41.82953208 -38.8125 31.375 C-35.97999044 19.60496027 -28.11376816 10.97749498 -18.05078125 4.62890625 C-17.31214844 4.21511719 -16.57351563 3.80132813 -15.8125 3.375 C-14.9359375 2.83488281 -14.059375 2.29476562 -13.15625 1.73828125 C-8.67739834 -0.08779262 -4.78788096 -0.06436285 0 0 Z " fill="#2064FA" transform="translate(1212.8125,511.625)"/>
<path d="M0 0 C2.64453125 1.125 2.64453125 1.125 5.64453125 3.125 C6.0052948 6.0609436 6.0052948 6.0609436 5.98510742 9.86962891 C5.98576454 10.90882225 5.98576454 10.90882225 5.98643494 11.9690094 C5.98434157 14.26347851 5.96098593 16.55722074 5.9375 18.8515625 C5.93190596 20.44053752 5.92763496 22.02951771 5.92463684 23.61849976 C5.91317283 27.80422203 5.88369256 31.98963286 5.8505249 36.17523193 C5.81985736 40.44490343 5.80613862 44.71462516 5.79101562 48.984375 C5.75882409 57.36472639 5.70760928 65.74482447 5.64453125 74.125 C2.34453125 74.125 -0.95546875 74.125 -4.35546875 74.125 C-4.35546875 78.745 -4.35546875 83.365 -4.35546875 88.125 C-7.0945222 89.49452673 -9.32634207 89.25121361 -12.35546875 89.125 C-13.01546875 88.795 -13.67546875 88.465 -14.35546875 88.125 C-14.35546875 83.175 -14.35546875 78.225 -14.35546875 73.125 C-17.65546875 73.125 -20.95546875 73.125 -24.35546875 73.125 C-24.68247678 65.54534161 -24.92988435 57.96642777 -25.08083916 50.38128471 C-25.1533731 46.8569309 -25.25135413 43.3374597 -25.41162109 39.81591797 C-26.55742919 13.96176824 -26.55742919 13.96176824 -19.63565063 6.01077271 C-13.397915 0.00522713 -8.86446249 -2.44838421 0 0 Z " fill="#1B62FA" transform="translate(377.35546875,537.875)"/>
<path d="M0 0 C3.59861718 1.66429274 6.8632166 3.78559438 10.1875 5.9375 C12.22730563 7.21963969 14.26769778 8.50084662 16.30859375 9.78125 C17.38737793 10.46445312 18.46616211 11.14765625 19.57763672 11.8515625 C23.14224481 14.09955766 26.74079628 16.28936389 30.34765625 18.46875 C30.96436691 18.84141495 31.58107758 19.2140799 32.21647644 19.59803772 C33.45403526 20.34531706 34.69174077 21.09235353 35.92959595 21.83914185 C39.90680801 24.23883069 43.8807342 26.64352374 47.84179688 29.06982422 C49.96453636 30.3671633 52.09628487 31.64986471 54.23632812 32.91845703 C55.23599609 33.52415527 56.23566406 34.12985352 57.265625 34.75390625 C58.15540039 35.28443604 59.04517578 35.81496582 59.96191406 36.36157227 C62 38 62 38 62.88964844 40.05834961 C63 42 63 42 61.5 44.3125 C59 46 59 46 55.71655273 45.81103516 C51.85326857 44.96797991 49.37856322 43.78944179 46.03515625 41.7109375 C44.91592773 41.02314209 43.79669922 40.33534668 42.64355469 39.62670898 C41.44969283 38.87642083 40.25601172 38.12584501 39.0625 37.375 C37.82908061 36.61104232 36.5950226 35.84811481 35.36035156 35.08618164 C32.19190192 33.12672337 29.0326606 31.15293989 25.8760376 29.17449951 C22.86288114 27.288103 19.84317614 25.41224934 16.82421875 23.53515625 C11.20573937 20.03961733 5.60379387 16.5194559 0 13 C0 24.55 0 36.1 0 48 C3.3 48 6.6 48 10 48 C10 61.53 10 75.06 10 89 C0 86 0 86 -1 85 C-1.08758003 83.00035018 -1.10696576 80.9976389 -1.09765625 78.99609375 C-1.09443359 77.78115234 -1.09121094 76.56621094 -1.08789062 75.31445312 C-1.07951172 74.03505859 -1.07113281 72.75566406 -1.0625 71.4375 C-1.05798828 70.15423828 -1.05347656 68.87097656 -1.04882812 67.54882812 C-1.03699545 64.36583978 -1.02051068 61.18294238 -1 58 C-3.97 58 -6.94 58 -10 58 C-10 66.91 -10 75.82 -10 85 C-12.475 85.99 -12.475 85.99 -15 87 C-16.65 87.99 -18.3 88.98 -20 90 C-20 76.14 -20 62.28 -20 48 C-16.7 48 -13.4 48 -10 48 C-10.01571045 46.65252686 -10.0314209 45.30505371 -10.04760742 43.91674805 C-10.10185014 38.92413292 -10.13632957 33.93154391 -10.16479492 28.9387207 C-10.17989444 26.77656679 -10.20037571 24.61444357 -10.22631836 22.45239258 C-10.26265017 19.347091 -10.27971462 16.24219386 -10.29296875 13.13671875 C-10.30845261 12.16788254 -10.32393646 11.19904633 -10.33988953 10.20085144 C-10.34022942 8.84979057 -10.34022942 8.84979057 -10.34057617 7.47143555 C-10.34723801 6.67867722 -10.35389984 5.88591888 -10.36076355 5.06913757 C-9.36358915 -0.65009602 -4.96267225 -0.70194078 0 0 Z " fill="#091344" transform="translate(373,407)"/>
<path d="M0 0 C15.84 0 31.68 0 48 0 C48 16.5 48 33 48 50 C44.37 50 40.74 50 37 50 C37 40.43 37 30.86 37 21 C36.34 21 35.68 21 35 21 C34.75636719 21.57234375 34.51273437 22.1446875 34.26171875 22.734375 C32.77482702 25.40433538 31.01916092 27.13829007 28.8125 29.25 C25.28247029 32.63783937 22.05841228 36.19204095 18.8581543 39.88574219 C15.21877513 44.02672544 11.39625087 47.99818465 7.60546875 52 C4.51947858 55.27127736 1.48161374 58.56695001 -1.46484375 61.96484375 C-5.86482364 67.03317501 -10.50156552 71.87073253 -15.12695312 76.73242188 C-19.21902129 81.05248231 -23.1663281 85.44863602 -27 90 C-29 87 -29 87 -29.4375 84.875 C-29.623125 84.25625 -29.80875 83.6375 -30 83 C-32.94729537 81.84188612 -32.94729537 81.84188612 -36 82 C-35.57589844 81.5875 -35.15179688 81.175 -34.71484375 80.75 C-34.12832031 80.1725 -33.54179687 79.595 -32.9375 79 C-32.36902344 78.443125 -31.80054688 77.88625 -31.21484375 77.3125 C-29.32358399 75.33785136 -27.52571978 73.32592911 -25.734375 71.26171875 C-22.03471262 67.00668889 -18.19301647 62.90228565 -14.3125 58.8125 C-12.90319066 57.32074238 -11.49434095 55.82855042 -10.0859375 54.3359375 C-9.3959668 53.6047168 -8.70599609 52.87349609 -7.99511719 52.12011719 C-1.56651299 45.2887419 4.81202783 38.41804772 10.9375 31.3125 C14.63690197 27.16468567 18.46930161 23.13756906 22.29052734 19.10205078 C23.17925537 18.15821533 23.17925537 18.15821533 24.0859375 17.1953125 C24.6226709 16.62828613 25.1594043 16.06125977 25.71240234 15.47705078 C27.09883887 14.01118021 27.09883887 14.01118021 28 12 C18.76 12 9.52 12 0 12 C0 8.04 0 4.08 0 0 Z " fill="#1E62F8" transform="translate(458,404)"/>
<path d="M0 0 C3.63 0 7.26 0 11 0 C11 4.29 11 8.58 11 13 C14.3 13 17.6 13 21 13 C21 31.15 21 49.3 21 68 C17.7 68 14.4 68 11 68 C11 73.94 11 79.88 11 86 C6 86 6 86 0 83 C0 78.05 0 73.1 0 68 C-3.3 68 -6.6 68 -10 68 C-10 49.52 -10 31.04 -10 12 C-6.7 12 -3.4 12 0 12 C0 8.04 0 4.08 0 0 Z " fill="#101945" transform="translate(283,568)"/>
<path d="M0 0 C5.00508053 4.35849118 7.71120585 9.71645012 8.28515625 16.2421875 C8.51846339 25.67591104 7.76188395 32.91756193 1.75 40.375 C-3.75247864 46.09393225 -8.16812498 47.16868337 -15.9375 47.5 C-22.23961583 47.34612668 -26.42077062 46.41291354 -31 42 C-37.98394467 34.27995834 -38.55476384 26.0402178 -38.3046875 16.078125 C-37.91022027 8.873393 -35.2950379 4.99790929 -30.125 0.125 C-20.63711752 -7.53158163 -9.82122753 -6.64068765 0 0 Z " fill="#F9F9FB" transform="translate(749,532)"/>
<path d="M0 0 C0 5.28 0 10.56 0 16 C-2.02125 16.103125 -4.0425 16.20625 -6.125 16.3125 C-14.10421814 16.94426022 -18.71535367 18.83457928 -24 25 C-25.6689044 28.48721171 -26.26036314 31.30724028 -26.31884766 35.1574707 C-26.33871735 36.15813065 -26.35858704 37.15879059 -26.37905884 38.18977356 C-26.39061005 39.2576561 -26.40216125 40.32553864 -26.4140625 41.42578125 C-26.43342865 42.52850876 -26.4527948 43.63123627 -26.4727478 44.76737976 C-26.53242923 48.28234166 -26.57888375 51.79733651 -26.625 55.3125 C-26.66319026 57.69858183 -26.7022426 60.08465003 -26.7421875 62.47070312 C-26.83812143 68.3136809 -26.92320247 74.15674106 -27 80 C-29.64590014 80.02684679 -32.29153096 80.04676357 -34.9375 80.0625 C-35.69224609 80.07087891 -36.44699219 80.07925781 -37.22460938 80.08789062 C-39.14994313 80.09652441 -41.07535581 80.05224333 -43 80 C-44.69668207 78.30331793 -44.11968993 76.18867982 -44.12442017 73.92559814 C-44.12082489 73.19983582 -44.11722961 72.47407349 -44.11352539 71.72631836 C-44.11367142 70.96539383 -44.11381744 70.2044693 -44.1139679 69.42048645 C-44.11326862 66.89357702 -44.10547555 64.36674038 -44.09765625 61.83984375 C-44.09579212 60.0924941 -44.0943682 58.34514393 -44.09336853 56.59779358 C-44.08954293 51.98968066 -44.07971229 47.38159905 -44.06866455 42.77349854 C-44.05845134 38.07491479 -44.0538711 33.37632601 -44.04882812 28.67773438 C-44.03809005 19.45180692 -44.02049292 10.22591096 -44 1 C-38.72 1 -33.44 1 -28 1 C-27.67 4.3 -27.34 7.6 -27 11 C-25.700625 9.3603125 -25.700625 9.3603125 -24.375 7.6875 C-17.59323444 -0.21126224 -9.71644632 -0.12955262 0 0 Z " fill="#2466FA" transform="translate(1087,513)"/>
<path d="M0 0 C3.3 0 6.6 0 10 0 C10 3.96 10 7.92 10 12 C13.3 12 16.6 12 20 12 C20 25.53 20 39.06 20 53 C10 50 10 50 9 49 C8.91241997 47.00035018 8.89303424 44.9976389 8.90234375 42.99609375 C8.90556641 41.78115234 8.90878906 40.56621094 8.91210938 39.31445312 C8.92048828 38.03505859 8.92886719 36.75566406 8.9375 35.4375 C8.94201172 34.15423828 8.94652344 32.87097656 8.95117188 31.54882812 C8.96300455 28.36583978 8.97948932 25.18294238 9 22 C6.03 22 3.06 22 0 22 C0 30.91 0 39.82 0 49 C-1.65 49.66 -3.3 50.32 -5 51 C-6.65 51.99 -8.3 52.98 -10 54 C-10 40.14 -10 26.28 -10 12 C-6.7 12 -3.4 12 0 12 C0 8.04 0 4.08 0 0 Z " fill="#05218D" transform="translate(363,443)"/>
<path d="M0 0 C1.0304322 11.44924663 1.0304322 11.44924663 -2.375 16.5 C-6.58547347 21.26657374 -11.9785605 23.3718757 -18.17578125 24.33984375 C-23.03190581 24.57557795 -26.81708817 23.37851849 -31 21 C-33.50037398 18.09633989 -33.96108222 16.31134227 -34.4375 12.5 C-33.90861465 8.2689172 -33.1609515 6.84485635 -30 4 C-21.1371593 -0.77229884 -9.84284638 -0.07665768 0 0 Z " fill="#F5F8FD" transform="translate(1144,557)"/>
<path d="M0 0 C4.36569992 2.45055797 7.07767411 4.58141547 9.6875 8.875 C10.1825 12.835 10.1825 12.835 10.6875 16.875 C-3.1725 16.875 -17.0325 16.875 -31.3125 16.875 C-30.21237234 9.17410636 -28.84882707 6.82121469 -23.3125 1.875 C-16.03462181 -3.49318701 -8.1089652 -3.72313558 0 0 Z " fill="#F6F6F8" transform="translate(833.3125,528.125)"/>
<path d="M0 0 C4.36361872 2.67355195 7.37751177 6.93532947 9.4375 11.5625 C9.4375 13.2125 9.4375 14.8625 9.4375 16.5625 C-4.7525 16.5625 -18.9425 16.5625 -33.5625 16.5625 C-30.17657249 6.40471748 -30.17657249 6.40471748 -27.125 3.625 C-26.54878906 3.07972656 -25.97257812 2.53445313 -25.37890625 1.97265625 C-18.76606493 -3.161184 -7.64079307 -3.24919162 0 0 Z " fill="#F6F9FD" transform="translate(1309.5625,528.4375)"/>
<path d="M0 0 C1.32 0 2.64 0 4 0 C4.33 0.66 4.66 1.32 5 2 C8.25746227 4.13677571 10.91326378 4.21635086 14.75 4.125 C15.73484375 4.10695313 16.7196875 4.08890625 17.734375 4.0703125 C18.48203125 4.04710937 19.2296875 4.02390625 20 4 C20 4.33 20 4.66 20 5 C16.7 5 13.4 5 10 5 C10 14.24 10 23.48 10 33 C8.35 33.66 6.7 34.32 5 35 C3.35 35.99 1.7 36.98 0 38 C0 25.46 0 12.92 0 0 Z " fill="#0C1953" transform="translate(353,459)"/>
<path d="M0 0 C2.97 0 5.94 0 9 0 C9 11.22 9 22.44 9 34 C6.03 34 3.06 34 0 34 C0 22.78 0 11.56 0 0 Z " fill="#F3F4F6" transform="translate(284,592)"/>
<path d="M0 0 C0.33 0 0.66 0 1 0 C1 11.22 1 22.44 1 34 C-1.97 33.34 -4.94 32.68 -8 32 C-8 23.09 -8 14.18 -8 5 C-6.35 5 -4.7 5 -3 5 C-2.01 4.67 -1.02 4.34 0 4 C0 2.68 0 1.36 0 0 Z " fill="#061043" transform="translate(381,461)"/>
<path d="M0 0 C4.08337948 -0.02726292 8.16657236 -0.04696522 12.25 -0.0625 C13.95929688 -0.07506836 13.95929688 -0.07506836 15.703125 -0.08789062 C31.83609562 -0.13372293 31.83609562 -0.13372293 38 1 C38.495 1.99 38.495 1.99 39 3 C34.38 3 29.76 3 25 3 C25 2.34 25 1.68 25 1 C22.89551062 1.14109986 20.7914123 1.28804175 18.6875 1.4375 C17.51574219 1.51871094 16.34398437 1.59992188 15.13671875 1.68359375 C11.97409042 1.8867371 11.97409042 1.8867371 9 3 C8.154375 3.2475 7.30875 3.495 6.4375 3.75 C3.3709244 4.98565669 3.3709244 4.98565669 2 10 C15.365 10.495 15.365 10.495 29 11 C28.67 11.66 28.34 12.32 28 13 C14.14 12.505 14.14 12.505 0 12 C0 8.04 0 4.08 0 0 Z " fill="#4A81FB" transform="translate(458,404)"/>
<path d="M0 0 C0.33 0 0.66 0 1 0 C1 13.53 1 27.06 1 41 C0.34 40.67 -0.32 40.34 -1 40 C-1 30.1 -1 20.2 -1 10 C-2.98 10.99 -2.98 10.99 -5 12 C-6.32 11.67 -7.64 11.34 -9 11 C-9 19.58 -9 28.16 -9 37 C-9.33 37 -9.66 37 -10 37 C-10 28.09 -10 19.18 -10 10 C-12.97 10 -15.94 10 -19 10 C-19 9.67 -19 9.34 -19 9 C-17.89591797 8.96132813 -17.89591797 8.96132813 -16.76953125 8.921875 C-10.91258492 8.58144483 -7.32166709 8.32166709 -3 4 C-2.34 4 -1.68 4 -1 4 C-0.67 2.68 -0.34 1.36 0 0 Z " fill="#3E4B83" transform="translate(382,455)"/>
<path d="M0 0 C6.57692308 0.57692308 6.57692308 0.57692308 8 2 C8.25 5.4375 8.25 5.4375 8 9 C4.77626323 11.14915785 3.73296326 11.38286803 0 11 C-2 9 -2 9 -2.25 5.5 C-2 2 -2 2 0 0 Z " fill="#E7E9ED" transform="translate(328,330)"/>
<path d="M0 0 C2.9375 0.75 2.9375 0.75 4.9375 2.75 C4.75 5.75 4.75 5.75 3.9375 8.75 C0.9375 10.75 0.9375 10.75 -1.625 10.5 C-4.0625 9.75 -4.0625 9.75 -6.0625 7.75 C-6.375 4.75 -6.375 4.75 -6.0625 1.75 C-3.0625 -0.25 -3.0625 -0.25 0 0 Z " fill="#ECEDF1" transform="translate(174.0625,529.25)"/>
<path d="M0 0 C2.97 0 5.94 0 9 0 C9 0.33 9 0.66 9 1 C6.36 1 3.72 1 1 1 C1 17.5 1 34 1 51 C3.31 51 5.62 51 8 51 C8 51.66 8 52.32 8 53 C8.66 53.66 9.32 54.32 10 55 C6.7 55 3.4 55 0 55 C0 36.85 0 18.7 0 0 Z " fill="#02072D" transform="translate(274,581)"/>
<path d="M0 0 C3 0.25 3 0.25 5 2.25 C5.25 5.25 5.25 5.25 5 8.25 C3 10.25 3 10.25 0 10.5 C-3 10.25 -3 10.25 -5 8.25 C-5.25 5.25 -5.25 5.25 -5 2.25 C-3 0.25 -3 0.25 0 0 Z " fill="#F1F2F5" transform="translate(474,625.75)"/>
<path d="M0 0 C0.33 0 0.66 0 1 0 C1 5.61 1 11.22 1 17 C-3.40285423 17 -5.19956554 16.73734147 -9 15 C-7.68 14.67 -6.36 14.34 -5 14 C-4.896875 13.360625 -4.79375 12.72125 -4.6875 12.0625 C-4.460625 11.381875 -4.23375 10.70125 -4 10 C-3.01 9.67 -2.02 9.34 -1 9 C-1.020625 9.969375 -1.04125 10.93875 -1.0625 11.9375 C-1.35618499 14.87465895 -1.35618499 14.87465895 0 16 C0 10.72 0 5.44 0 0 Z " fill="#313859" transform="translate(293,637)"/>
<path d="M0 0 C-0.66 3.3 -1.32 6.6 -2 10 C-7.625 8.875 -7.625 8.875 -10 6 C-8.68 6 -7.36 6 -6 6 C-5.8453125 5.071875 -5.8453125 5.071875 -5.6875 4.125 C-4.72223986 1.14146864 -3.16449578 0 0 0 Z " fill="#181D40" transform="translate(279,710)"/>
<path d="M0 0 C0.99 0.33 1.98 0.66 3 1 C2.835 1.78375 2.67 2.5675 2.5 3.375 C1.9376293 5.88208039 1.9376293 5.88208039 2 8 C2.99 8.33 3.98 8.66 5 9 C4.625 10.9375 4.625 10.9375 4 13 C3.01 13.495 3.01 13.495 2 14 C1.731875 12.865625 1.46375 11.73125 1.1875 10.5625 C0.5996875 8.7990625 0.5996875 8.7990625 0 7 C-2.94729537 5.84188612 -2.94729537 5.84188612 -6 6 C-4.02 4.02 -2.04 2.04 0 0 Z " fill="#143DB3" transform="translate(428,480)"/>
<path d="M0 0 C0.33 0.99 0.66 1.98 1 3 C-0.36328125 4.9375 -0.36328125 4.9375 -2.3125 7 C-4.45825516 9.29809072 -6.24671907 11.3700786 -8 14 C-11.125 15.1875 -11.125 15.1875 -14 16 C-9.40525596 10.60117576 -4.72323727 5.28666913 0 0 Z " fill="#2E6DF9" transform="translate(470,434)"/>
<path d="M0 0 C0.66 0.33 1.32 0.66 2 1 C1 4 1 4 -0.70703125 5.09765625 C-1.40183594 5.41605469 -2.09664063 5.73445312 -2.8125 6.0625 C-3.49957031 6.38347656 -4.18664062 6.70445312 -4.89453125 7.03515625 C-5.58933594 7.35355469 -6.28414063 7.67195312 -7 8 C-7.66386719 8.39058594 -8.32773437 8.78117188 -9.01171875 9.18359375 C-11.4591045 10.18851246 -12.52112829 9.72820688 -15 9 C-12.54732365 7.46931512 -10.08866106 5.95031377 -7.625 4.4375 C-6.92632812 3.99986328 -6.22765625 3.56222656 -5.5078125 3.11132812 C-3.70814097 2.01249022 -1.85677657 0.99932133 0 0 Z " fill="#202652" transform="translate(412,662)"/>
<path d="M0 0 C0 0.33 0 0.66 0 1 C-1.25296875 1.06058594 -2.5059375 1.12117188 -3.796875 1.18359375 C-5.44792724 1.26802256 -7.09896835 1.35266939 -8.75 1.4375 C-9.575 1.47681641 -10.4 1.51613281 -11.25 1.55664062 C-12.04921875 1.59853516 -12.8484375 1.64042969 -13.671875 1.68359375 C-14.4050293 1.72025146 -15.13818359 1.75690918 -15.89355469 1.79467773 C-18.02474126 1.93095258 -18.02474126 1.93095258 -20.08300781 2.64477539 C-22 3 -22 3 -25 1 C-17.07860642 -2.4254675 -8.32026195 -1.2558886 0 0 Z " fill="#070B35" transform="translate(634,483)"/>
<path d="M0 0 C1.32 0.66 2.64 1.32 4 2 C3.34 2 2.68 2 2 2 C1.73960937 2.59167969 1.47921875 3.18335938 1.2109375 3.79296875 C-0.0769653 6.14027546 -1.37224178 7.55024768 -3.375 9.3125 C-3.96023438 9.84488281 -4.54546875 10.37726562 -5.1484375 10.92578125 C-7 12 -7 12 -9.2265625 11.66796875 C-9.81179688 11.44753906 -10.39703125 11.22710938 -11 11 C-10.45730469 10.62488281 -9.91460938 10.24976563 -9.35546875 9.86328125 C-5.29719077 6.96033285 -2.18018412 4.63289127 0 0 Z " fill="#222953" transform="translate(844,567)"/>
<path d="M0 0 C0.66 0.33 1.32 0.66 2 1 C-0.475 4.465 -0.475 4.465 -3 8 C-3.33 7.34 -3.66 6.68 -4 6 C-5.65 6.33 -7.3 6.66 -9 7 C-9 7.66 -9 8.32 -9 9 C-10.98 9.33 -12.96 9.66 -15 10 C-10.47125612 6.07508864 -5.39401009 2.62540314 0 0 Z " fill="#20264A" transform="translate(322,715)"/>
<path d="M0 0 C5.94 0 11.88 0 18 0 C17.67 0.99 17.34 1.98 17 3 C14.72975032 3.08097324 12.45867925 3.13917704 10.1875 3.1875 C8.29064453 3.23970703 8.29064453 3.23970703 6.35546875 3.29296875 C3 3 3 3 0 0 Z " fill="#ECECF1" transform="translate(615,498)"/>
<path d="M0 0 C0.66 0 1.32 0 2 0 C1.67 5.61 1.34 11.22 1 17 C0.34 17 -0.32 17 -1 17 C-1.02684679 14.35409986 -1.04676357 11.70846904 -1.0625 9.0625 C-1.07087891 8.30775391 -1.07925781 7.55300781 -1.08789062 6.77539062 C-1.09652441 4.85005687 -1.05224333 2.92464419 -1 1 C-0.67 0.67 -0.34 0.34 0 0 Z " fill="#3C75F7" transform="translate(1175,542)"/>
<path d="M0 0 C0.33 0.99 0.66 1.98 1 3 C-1.64 5.31 -4.28 7.62 -7 10 C-7.66 9.67 -8.32 9.34 -9 9 C-7.27592413 4.61144323 -4.17026127 2.08513063 0 0 Z " fill="#10173D" transform="translate(665,574)"/>
<path d="M0 0 C0.66 1.32 1.32 2.64 2 4 C0.95285076 5.32477959 -0.11344669 6.63443746 -1.1875 7.9375 C-1.77917969 8.66839844 -2.37085938 9.39929688 -2.98046875 10.15234375 C-5.35126051 12.321366 -6.82604018 12.75584924 -10 13 C-10.66 12.67 -11.32 12.34 -12 12 C-11.45730469 11.68546875 -10.91460938 11.3709375 -10.35546875 11.046875 C-5.27237021 8.00617461 -1.93250953 5.79752858 0 0 Z " fill="#3073FA" transform="translate(1233,566)"/>
<path d="M0 0 C0.74609375 1.703125 0.74609375 1.703125 1 4 C-0.65234375 6.359375 -0.65234375 6.359375 -2.9375 8.75 C-4.06478516 9.94882812 -4.06478516 9.94882812 -5.21484375 11.171875 C-5.80394531 11.77515625 -6.39304687 12.3784375 -7 13 C-7.66 12.67 -8.32 12.34 -9 12 C-7.65365543 7.5937814 -5.80625626 5.56922298 -2 3 C-1.34 3 -0.68 3 0 3 C0 2.01 0 1.02 0 0 Z " fill="#101D59" transform="translate(429,491)"/>
<path d="M0 0 C0.8971875 0.309375 0.8971875 0.309375 1.8125 0.625 C-0.25 3.125 -0.25 3.125 -3.1875 5.625 C-7 5.9375 -7 5.9375 -10.1875 5.625 C-2.68278302 -0.45990566 -2.68278302 -0.45990566 0 0 Z " fill="#181E44" transform="translate(322.1875,425.375)"/>
<path d="M0 0 C-1.76858691 0.67260351 -3.53996016 1.33788395 -5.3125 2 C-6.29863281 2.37125 -7.28476562 2.7425 -8.30078125 3.125 C-11 4 -11 4 -14 4 C-14 4.66 -14 5.32 -14 6 C-15.98 6.33 -17.96 6.66 -20 7 C-17.37739925 3.82674642 -14.35249579 2.71265445 -10.5625 1.25 C-9.42941406 0.80140625 -8.29632812 0.3528125 -7.12890625 -0.109375 C-4.10898801 -0.9689772 -2.85271145 -1.14949552 0 0 Z " fill="#4E5276" transform="translate(615,483)"/>
<path d="M0 0 C2 1 2 1 2 1 Z M-2 1 C-1.34 1.33 -0.68 1.66 0 2 C-0.61488281 2.68835938 -0.61488281 2.68835938 -1.2421875 3.390625 C-1.78101563 4.00421875 -2.31984375 4.6178125 -2.875 5.25 C-3.40867188 5.85328125 -3.94234375 6.4565625 -4.4921875 7.078125 C-5.9797487 8.97418746 -7.00322436 10.81290005 -8 13 C-8.66 11.68 -9.32 10.36 -10 9 C-7.36 6.36 -4.72 3.72 -2 1 Z " fill="#1D244E" transform="translate(189,618)"/>
<path d="M0 0 C0.66 0.33 1.32 0.66 2 1 C-0.25 3.5 -0.25 3.5 -3 6 C-4.32 6 -5.64 6 -7 6 C-7 6.66 -7 7.32 -7 8 C-8.98 8.33 -10.96 8.66 -13 9 C-9.00302635 5.62755348 -4.72909821 2.28625278 0 0 Z " fill="#22264A" transform="translate(242,428)"/>
<path d="M0 0 C0.33 0.66 0.66 1.32 1 2 C0.2575 2.721875 -0.485 3.44375 -1.25 4.1875 C-4.00718317 6.8851686 -4.00718317 6.8851686 -6.0625 9.75 C-8.17340327 12.20137154 -8.95694118 12.41795964 -12 13 C-8.19524578 8.43969176 -4.25030379 4.14910608 0 0 Z " fill="#ECEDF2" transform="translate(467,498)"/>
<path d="M0 0 C-1.5588334 3.82622743 -3.95433582 6.25147379 -7 9 C-7.99 9.33 -8.98 9.66 -10 10 C-8.71596412 5.50587442 -5.23012555 0 0 0 Z " fill="#2B6CFA" transform="translate(1110,517)"/>
<path d="M0 0 C1.32 0.66 2.64 1.32 4 2 C1.54724859 3.2263757 -0.0505781 3.11415314 -2.7890625 3.09765625 C-3.73007813 3.09443359 -4.67109375 3.09121094 -5.640625 3.08789062 C-6.62546875 3.07951172 -7.6103125 3.07113281 -8.625 3.0625 C-9.61757812 3.05798828 -10.61015625 3.05347656 -11.6328125 3.04882812 C-14.0886016 3.03702145 -16.54427104 3.020554 -19 3 C-19 2.67 -19 2.34 -19 2 C-17.71222656 1.93941406 -16.42445312 1.87882813 -15.09765625 1.81640625 C-13.41925841 1.73201753 -11.74087364 1.6473687 -10.0625 1.5625 C-8.78729492 1.50352539 -8.78729492 1.50352539 -7.48632812 1.44335938 C-6.67744141 1.40146484 -5.86855469 1.35957031 -5.03515625 1.31640625 C-3.91185913 1.26141968 -3.91185913 1.26141968 -2.76586914 1.20532227 C-0.97538674 1.18228937 -0.97538674 1.18228937 0 0 Z " fill="#457DF8" transform="translate(1307,591)"/>
<path d="M0 0 C0.66 0 1.32 0 2 0 C0.63629701 2.99220268 -0.94908083 5.29026529 -3.125 7.75 C-3.93324219 8.67039062 -3.93324219 8.67039062 -4.7578125 9.609375 C-5.16773438 10.06828125 -5.57765625 10.5271875 -6 11 C-6.66 10.01 -7.32 9.02 -8 8 C-7.34 8 -6.68 8 -6 8 C-5.7525 7.38125 -5.505 6.7625 -5.25 6.125 C-3.79371361 3.64931313 -2.62187494 3.04874998 0 2 C0 1.34 0 0.68 0 0 Z " fill="#1551E3" transform="translate(440,480)"/>
<path d="M0 0 C3.125 0.375 3.125 0.375 6 1 C3.31158141 3.25245881 1.35358125 4.88213958 -2 6 C-2 2 -2 2 0 0 Z " fill="#12173D" transform="translate(414,669)"/>
<path d="M0 0 C1.65 0.33 3.3 0.66 5 1 C3.71034824 2.37562854 2.37310707 3.70766393 1 5 C0.34 5 -0.32 5 -1 5 C-1.33 6.32 -1.66 7.64 -2 9 C-2.25 3.375 -2.25 3.375 0 0 Z " fill="#2B355F" transform="translate(229,636)"/>
<path d="M0 0 C0.66 0.99 1.32 1.98 2 3 C1.01 4.485 1.01 4.485 0 6 C-0.29991069 8.58885171 -0.50865225 11.09149082 -0.625 13.6875 C-0.66367188 14.38939453 -0.70234375 15.09128906 -0.7421875 15.81445312 C-0.8362334 17.54254655 -0.9191968 19.27123675 -1 21 C-1.33 21 -1.66 21 -2 21 C-2.05420701 18.43721301 -2.09377007 15.87558517 -2.125 13.3125 C-2.15013672 12.2306543 -2.15013672 12.2306543 -2.17578125 11.12695312 C-2.21391569 6.95123219 -1.8789919 3.7505862 0 0 Z " fill="#A8C5FC" transform="translate(1193,540)"/>
<path d="M0 0 C1.32 0.66 2.64 1.32 4 2 C4 3.65 4 5.3 4 7 C2.35 7 0.7 7 -1 7 C-0.67 4.69 -0.34 2.38 0 0 Z " fill="#D9DCE4" transform="translate(803,538)"/>
<path d="M0 0 C0.33 0.99 0.66 1.98 1 3 C-1.31 5.31 -3.62 7.62 -6 10 C-6.33 8.68 -6.66 7.36 -7 6 C-4.69 4.02 -2.38 2.04 0 0 Z " fill="#23284B" transform="translate(466,496)"/>
<path d="M0 0 C1.32 0.66 2.64 1.32 4 2 C3.67 3.32 3.34 4.64 3 6 C2.67 5.01 2.34 4.02 2 3 C0.35 3.66 -1.3 4.32 -3 5 C-3 4.01 -3 3.02 -3 2 C-2.01 1.34 -1.02 0.68 0 0 Z " fill="#031767" transform="translate(425,485)"/>
<path d="M0 0 C0.33 0.99 0.66 1.98 1 3 C-4.75 7 -4.75 7 -7 7 C-7 6.01 -7 5.02 -7 4 C-6.34 4 -5.68 4 -5 4 C-4.67 3.01 -4.34 2.02 -4 1 C-2 0 -2 0 0 0 Z " fill="#090F30" transform="translate(248,389)"/>
<path d="M0 0 C2.29141286 -0.05384521 4.58318188 -0.09272087 6.875 -0.125 C8.78925781 -0.15980469 8.78925781 -0.15980469 10.7421875 -0.1953125 C14 0 14 0 16 2 C14.02 2.33 12.04 2.66 10 3 C10 2.34 10 1.68 10 1 C6.7 1 3.4 1 0 1 C0 0.67 0 0.34 0 0 Z " fill="#040730" transform="translate(910,513)"/>
<path d="M0 0 C1.32 0 2.64 0 4 0 C4.33 0.66 4.66 1.32 5 2 C5.99 2.33 6.98 2.66 8 3 C8 3.66 8 4.32 8 5 C5.69 5 3.38 5 1 5 C0.67 3.35 0.34 1.7 0 0 Z " fill="#031767" transform="translate(353,459)"/>
<path d="M0 0 C2 1 2 1 3 3 C-0.85756507 5.15305957 -3.55129785 6.39253254 -8 6 C-5.38485683 3.87961365 -2.80362384 1.86908256 0 0 Z " fill="#1F2651" transform="translate(227,437)"/>
<path d="M0 0 C0.66 0.66 1.32 1.32 2 2 C-4.28571429 7.57142857 -4.28571429 7.57142857 -8 8 C-5.33333333 5.33333333 -2.66666667 2.66666667 0 0 Z " fill="#161D4C" transform="translate(191,575)"/>
<path d="M0 0 C2.64 0 5.28 0 8 0 C8 0.99 8 1.98 8 3 C5.69 3.33 3.38 3.66 1 4 C0.67 2.68 0.34 1.36 0 0 Z " fill="#0F1748" transform="translate(284,568)"/>
<path d="M0 0 C0.99 0.33 1.98 0.66 3 1 C0.69 3.31 -1.62 5.62 -4 8 C-4.66 7.34 -5.32 6.68 -6 6 C-4 4 -2 2 0 0 Z " fill="#252D51" transform="translate(362,520)"/>
<path d="M0 0 C2 2 2 2 2.1953125 3.9453125 C2.13020833 5.96354167 2.06510417 7.98177083 2 10 C1.01 10.33 0.02 10.66 -1 11 C-1.125 3.375 -1.125 3.375 0 0 Z " fill="#242B55" transform="translate(316,329)"/>
<path d="M0 0 C0.66 0.33 1.32 0.66 2 1 C2 1.99 2 2.98 2 4 C-1.33333333 7 -1.33333333 7 -4 7 C-3.43628586 3.73045798 -2.50037734 2.17424117 0 0 Z " fill="#1A214C" transform="translate(336,662)"/>
<path d="M0 0 C1.65 0 3.3 0 5 0 C5 0.99 5 1.98 5 3 C6.32 3 7.64 3 9 3 C9.33 3.99 9.66 4.98 10 6 C5.56909529 4.79157144 3.01887244 3.48331435 0 0 Z " fill="#33385C" transform="translate(592,584)"/>
<path d="M0 0 C0.99 0.33 1.98 0.66 3 1 C0.6875 3.5 0.6875 3.5 -2 6 C-2.99 6 -3.98 6 -5 6 C-3.35 4.02 -1.7 2.04 0 0 Z " fill="#E3E5EA" transform="translate(247,561)"/>
<path d="M0 0 C2.92090003 1.30936898 4.75619462 2.75619462 7 5 C7.99 5.33 8.98 5.66 10 6 C9.67 6.99 9.34 7.98 9 9 C7.87105124 8.06725891 6.74699124 7.12859878 5.625 6.1875 C4.99851562 5.66542969 4.37203125 5.14335938 3.7265625 4.60546875 C2 3 2 3 0 0 Z " fill="#131941" transform="translate(299,552)"/>
<path d="M0 0 C1.32 0.33 2.64 0.66 4 1 C2.68 1.33 1.36 1.66 0 2 C-0.33 3.32 -0.66 4.64 -1 6 C-2.65 6.33 -4.3 6.66 -6 7 C-4.02 4.69 -2.04 2.38 0 0 Z " fill="#080F30" transform="translate(226,446)"/>
<path d="M0 0 C0.99 0.33 1.98 0.66 3 1 C0.64619703 4.92300495 -1.64464931 5.83857315 -6 7 C-4.02 4.69 -2.04 2.38 0 0 Z " fill="#3A74F9" transform="translate(462,443)"/>
<path d="M0 0 C0.99 0.33 1.98 0.66 3 1 C1.35 2.65 -0.3 4.3 -2 6 C-2.99 5.67 -3.98 5.34 -5 5 C-3.35 3.35 -1.7 1.7 0 0 Z " fill="#060D35" transform="translate(205,603)"/>
<path d="M0 0 C0.66 0.99 1.32 1.98 2 3 C0.68 4.65 -0.64 6.3 -2 8 C-2.99 7.67 -3.98 7.34 -5 7 C-4.360625 6.21625 -3.72125 5.4325 -3.0625 4.625 C-1.01857687 2.20460719 -1.01857687 2.20460719 0 0 Z " fill="#1B2351" transform="translate(657,559)"/>
<path d="M0 0 C4.62 0 9.24 0 14 0 C14.33 0.99 14.66 1.98 15 3 C7.575 2.01 7.575 2.01 0 1 C0 0.67 0 0.34 0 0 Z " fill="#5D8EF6" transform="translate(1124,526)"/>
<path d="M0 0 C0.763125 0.20625 1.52625 0.4125 2.3125 0.625 C-0.24741624 2.63636276 -2.73340299 4.25345496 -5.6875 5.625 C-5.6875 4.305 -5.6875 2.985 -5.6875 1.625 C-2.6875 -0.375 -2.6875 -0.375 0 0 Z " fill="#12183A" transform="translate(286.6875,412.375)"/>
<path d="M0 0 C2.1875 0.3125 2.1875 0.3125 4 1 C4 1.66 4 2.32 4 3 C2.02 3.99 2.02 3.99 0 5 C-0.99 4.34 -1.98 3.68 -3 3 C-1.75 1.4375 -1.75 1.4375 0 0 Z " fill="#0D1333" transform="translate(229,399)"/>
<path d="M0 0 C-1.36983503 3.16115776 -1.9890638 3.9927092 -5 6 C-5.33 5.34 -5.66 4.68 -6 4 C-5.67 3.01 -5.34 2.02 -5 1 C-3 0 -3 0 0 0 Z " fill="#161B3C" transform="translate(239,586)"/>
<path d="M0 0 C0.99 0.33 1.98 0.66 3 1 C1.1875 3.5 1.1875 3.5 -1 6 C-1.99 6 -2.98 6 -4 6 C-2.84826645 3.53199953 -1.95216435 1.95216435 0 0 Z " fill="#080D31" transform="translate(230,580)"/>
<path d="M0 0 C0.66 0.33 1.32 0.66 2 1 C0.3125 3.0625 0.3125 3.0625 -2 5 C-4.75 4.75 -4.75 4.75 -7 4 C-4.66603411 2.44402274 -2.57343171 1.07918104 0 0 Z " fill="#262B51" transform="translate(641,574)"/>
<path d="M0 0 C1.98 0.66 3.96 1.32 6 2 C5.67 3.65 5.34 5.3 5 7 C2.47411298 4.63707344 1.11179163 3.33537489 0 0 Z " fill="#417CF8" transform="translate(1244,567)"/>
<path d="M0 0 C1.32 0 2.64 0 4 0 C2.60667426 3.36720387 1.0210714 4.9859524 -2 7 C-2 5.68 -2 4.36 -2 3 C-1.01 3 -0.02 3 1 3 C0.67 2.01 0.34 1.02 0 0 Z " fill="#11183B" transform="translate(273,551)"/>
<path d="M0 0 C0.12375 0.639375 0.2475 1.27875 0.375 1.9375 C0.58125 2.618125 0.7875 3.29875 1 4 C1.66 4.33 2.32 4.66 3 5 C2.34 6.98 1.68 8.96 1 11 C-0.98362069 8.08291076 -0.9876191 6.87619096 -0.625 3.25 C-0.41875 2.1775 -0.2125 1.105 0 0 Z " fill="#171E47" transform="translate(662,543)"/>
<path d="M0 0 C0.66 0.33 1.32 0.66 2 1 C1.67 2.65 1.34 4.3 1 6 C-0.98 6.33 -2.96 6.66 -5 7 C-4.01 6.67 -3.02 6.34 -2 6 C-0.77479736 2.99152582 -0.77479736 2.99152582 0 0 Z " fill="#060D30" transform="translate(181,542)"/>
<path d="M0 0 C0 0.66 0 1.32 0 2 C-0.99 2.33 -1.98 2.66 -3 3 C-3.99 4.485 -3.99 4.485 -5 6 C-5.66 6 -6.32 6 -7 6 C-7.33 6.99 -7.66 7.98 -8 9 C-7.70100785 5.41209425 -7.23013399 4.21833224 -4.5625 1.6875 C-2 0 -2 0 0 0 Z " fill="#242D54" transform="translate(176,469)"/>
<path d="M0 0 C0.33 0.99 0.66 1.98 1 3 C-1.3125 5.5 -1.3125 5.5 -4 8 C-4.99 8 -5.98 8 -7 8 C-4.69 5.36 -2.38 2.72 0 0 Z " fill="#2E6CF8" transform="translate(478,425)"/>
<path d="M0 0 C0.66 0.33 1.32 0.66 2 1 C1.67 1.99 1.34 2.98 1 4 C-1.5625 5.1875 -1.5625 5.1875 -4 6 C-3.6875 4.125 -3.6875 4.125 -3 2 C-2.01 1.34 -1.02 0.68 0 0 Z " fill="#DEE0E8" transform="translate(848,586)"/>
<path d="M0 0 C2.97 1.98 2.97 1.98 6 4 C5.67 4.99 5.34 5.98 5 7 C2.5 5.1875 2.5 5.1875 0 3 C0 2.01 0 1.02 0 0 Z " fill="#296BF7" transform="translate(1183,578)"/>
<path d="M0 0 C0 3 0 3 -1 6 C-2.65 6.33 -4.3 6.66 -6 7 C-4.02 4.69 -2.04 2.38 0 0 Z " fill="#262B51" transform="translate(327,542)"/>
<path d="M0 0 C0.66 0.66 1.32 1.32 2 2 C-2.625 6.875 -2.625 6.875 -6 8 C-4.55746343 4.63408134 -2.66735273 2.48952921 0 0 Z " fill="#E0E2EA" transform="translate(810,530)"/>
<path d="M0 0 C0.556875 0.226875 1.11375 0.45375 1.6875 0.6875 C-2.74326923 3.76442308 -2.74326923 3.76442308 -5.625 3.375 C-6.4603125 3.0346875 -6.4603125 3.0346875 -7.3125 2.6875 C-2.88173077 -0.38942308 -2.88173077 -0.38942308 0 0 Z " fill="#1D2245" transform="translate(404.3125,668.3125)"/>
<path d="M0 0 C0.66 0.33 1.32 0.66 2 1 C0.35 2.98 -1.3 4.96 -3 7 C-3.66 6.34 -4.32 5.68 -5 5 C-3.35 3.35 -1.7 1.7 0 0 Z " fill="#1B2047" transform="translate(166,597)"/>
<path d="M0 0 C1.32 0.33 2.64 0.66 4 1 C1.25 4.875 1.25 4.875 -1 6 C-1.33 5.01 -1.66 4.02 -2 3 C-1.34 2.01 -0.68 1.02 0 0 Z " fill="#040B33" transform="translate(180,585)"/>
</svg>
