<?xml version="1.0" encoding="UTF-8"?>
<svg version="1.1" xmlns="http://www.w3.org/2000/svg" width="1448" height="1086">
<path d="M0 0 C477.84 0 955.68 0 1448 0 C1448 358.38 1448 716.76 1448 1086 C970.16 1086 492.32 1086 0 1086 C0 727.62 0 369.24 0 0 Z " fill="#FDFDFD" transform="translate(0,0)"/>
<path d="M0 0 C3.33894783 0.55649131 4.60735087 1.14590888 7 3.5 C7.4882555 5.98193264 7.4882555 5.98193264 7.47187805 8.99693298 C7.47567474 10.13960129 7.47947144 11.28226959 7.48338318 12.45956421 C7.4673555 13.71419464 7.45132782 14.96882507 7.43481445 16.26147461 C7.43208911 17.59530901 7.4312191 18.92914831 7.43206787 20.26298523 C7.43046739 23.1360104 7.4168029 26.00863921 7.39415932 28.88157463 C7.3595354 33.42387066 7.35836636 37.96579085 7.36308289 42.50819397 C7.37058936 54.60875174 7.33725297 66.70911323 7.27665156 78.80951649 C7.23688202 86.75887606 7.21690294 94.70771801 7.23502892 102.65717512 C7.24373657 107.17348468 7.22065034 111.68817269 7.17400134 116.20423305 C7.15220881 119.01364473 7.15951458 121.822423 7.17501831 124.6318531 C7.17694898 126.55632543 7.14398031 128.4807334 7.11003113 130.40490723 C6.90106493 136.25965263 6.90106493 136.25965263 9.57832909 141.10937691 C11.69245149 142.35799882 11.69245149 142.35799882 15 143.5 C17.33796256 148.17592512 16.5089886 154.42708028 16 159.5 C14.55377719 163.06927789 12.52135105 165.40867454 9.35546875 167.6796875 C6.49586013 168.6755711 3.95983798 168.51760272 0.9621582 168.41845703 C-12.74884338 168.17015524 -21.82264072 174.23117933 -33 181.5 C-35.89468697 183.32406972 -38.79734276 185.13500509 -41.70019531 186.94604492 C-43.69987168 188.19543409 -45.6966035 189.44954786 -47.69042969 190.70825195 C-58.32560153 197.4051347 -69.22334233 203.62595254 -80.13525391 209.85742188 C-83.98252892 212.063359 -87.80712708 214.30616474 -91.625 216.5625 C-107.27758137 225.79692462 -122.94826052 234.99506679 -138.81542969 243.85742188 C-143.23483551 246.33327089 -147.60834857 248.84670381 -151.90234375 251.53515625 C-153.04231812 252.24043457 -153.04231812 252.24043457 -154.20532227 252.95996094 C-155.5929462 253.82498137 -156.97093436 254.70578254 -158.33569336 255.60644531 C-163.1699273 258.60479064 -167.35603172 259.67124048 -173 258.5 C-176.89762478 257.37755569 -178.93411703 256.0313369 -181 252.5 C-182.26957096 246.19594491 -181.61156648 239.56507827 -181.3125 233.1875 C-181.2141274 230.53869085 -181.12771133 227.89041425 -181.05863953 225.24067688 C-181.0131392 223.59712937 -180.94989121 221.95393568 -180.86531067 220.31193542 C-180.67436159 214.7350633 -181.31026535 209.47945524 -184 204.5 C-186.67514593 202.31645548 -189.47947726 200.96289331 -192.625 199.5625 C-194.35726712 198.72244835 -196.08770471 197.87861483 -197.81640625 197.03125 C-198.68797363 196.61230469 -199.55954102 196.19335938 -200.45751953 195.76171875 C-204.26650115 193.87149242 -207.91489085 191.74450954 -211.5625 189.5625 C-212.24578369 189.15555908 -212.92906738 188.74861816 -213.63305664 188.3293457 C-215.75860186 187.0581985 -217.87936398 185.77931738 -220 184.5 C-220.77859375 184.03384277 -221.5571875 183.56768555 -222.359375 183.08740234 C-224.76381485 181.64716226 -227.16386921 180.19989085 -229.5625 178.75 C-230.28832275 178.31437744 -231.01414551 177.87875488 -231.76196289 177.42993164 C-235.41843351 175.2029888 -238.99487531 172.88209901 -242.48828125 170.40625 C-243.14739502 169.94025391 -243.80650879 169.47425781 -244.4855957 168.99414062 C-246 167.5 -246 167.5 -246.625 163.75 C-246 160.5 -246 160.5 -244 158.5 C-240.04928622 158.03707726 -237.79414196 158.85164807 -234.4375 160.88671875 C-233.56955811 161.4060498 -232.70161621 161.92538086 -231.80737305 162.46044922 C-230.88093994 163.03037598 -229.95450684 163.60030273 -229 164.1875 C-228.02522705 164.77547363 -227.0504541 165.36344727 -226.04614258 165.96923828 C-223.02217835 167.79917937 -220.00928601 169.64603388 -217 171.5 C-215.67427979 172.31670166 -215.67427979 172.31670166 -214.32177734 173.14990234 C-210.92736895 175.24559183 -207.53590249 177.34582028 -204.15112305 179.45703125 C-199.19312803 182.5451139 -194.21014376 185.58715297 -189.1953125 188.58203125 C-188.33493126 189.09606506 -188.33493126 189.09606506 -187.45716858 189.6204834 C-184.63980865 191.30229343 -181.81976242 192.97942008 -178.99682617 194.65185547 C-177.98338135 195.25529785 -176.96993652 195.85874023 -175.92578125 196.48046875 C-175.02255127 197.01567139 -174.11932129 197.55087402 -173.1887207 198.10229492 C-171 199.5 -171 199.5 -169 201.5 C-168.75949097 203.41091919 -168.75949097 203.41091919 -168.77294922 205.76611328 C-168.77310028 206.64687531 -168.77325134 207.52763733 -168.77340698 208.43508911 C-168.78372955 209.38721283 -168.79405212 210.33933655 -168.8046875 211.3203125 C-168.8075174 212.29410858 -168.81034729 213.26790466 -168.81326294 214.27120972 C-168.82448087 217.38926349 -168.8495883 220.50703268 -168.875 223.625 C-168.88502772 225.73567294 -168.89415393 227.84635038 -168.90234375 229.95703125 C-168.92442542 235.13811835 -168.95791871 240.31903885 -169 245.5 C-167.58278549 245.05242679 -166.16766188 244.59823037 -164.75341797 244.14135742 C-163.96514618 243.88915939 -163.17687439 243.63696136 -162.36471558 243.37712097 C-158.65103466 241.99964139 -155.44099024 239.95151839 -152.125 237.8125 C-145.38546512 233.5 -145.38546512 233.5 -142 233.5 C-142.01571045 232.25911621 -142.0314209 231.01823242 -142.04760742 229.73974609 C-142.10204088 225.12164845 -142.13639892 220.503579 -142.16479492 215.88525391 C-142.17985098 213.88911159 -142.20030027 211.89300219 -142.22631836 209.89697266 C-142.26284161 207.02237815 -142.27975837 204.14822228 -142.29296875 201.2734375 C-142.30845261 200.38570648 -142.32393646 199.49797546 -142.33988953 198.58334351 C-142.34126394 193.48574422 -141.97768259 189.83868791 -139 185.5 C-136.7644043 183.64868164 -136.7644043 183.64868164 -134.13671875 182.09765625 C-133.15493652 181.51000488 -132.1731543 180.92235352 -131.16162109 180.31689453 C-129.59661865 179.41753174 -129.59661865 179.41753174 -128 178.5 C-126.96568848 177.89655762 -125.93137695 177.29311523 -124.86572266 176.67138672 C-122.11008878 175.07782249 -119.3462731 173.50017526 -116.57507324 171.93386841 C-113.50618401 170.19905013 -110.44265341 168.45481599 -107.37890625 166.7109375 C-106.75917938 166.35840408 -106.13945251 166.00587067 -105.50094604 165.64265442 C-99.39033067 162.16200204 -93.31786569 158.61708036 -87.25 155.0625 C-61.58229651 140.05602144 -61.58229651 140.05602144 -52.703125 136.328125 C-50.25955354 135.1399664 -48.65327095 133.63547498 -47 131.5 C-45.7831848 127.8495544 -45.9230798 124.55328818 -45.99755859 120.7590332 C-46.02056102 119.1270614 -46.04345424 117.49508806 -46.06625366 115.8631134 C-46.08010479 114.99790384 -46.09395592 114.13269428 -46.10822678 113.24126625 C-46.17678758 108.6538878 -46.21269692 104.06620678 -46.25390625 99.47851562 C-46.30781078 93.64288474 -46.37144707 87.80791434 -46.47314453 81.97290039 C-46.55450493 77.25560133 -46.60125722 72.53905311 -46.62520218 67.82112694 C-46.64059425 66.02733378 -46.6685474 64.23360098 -46.70954514 62.44021034 C-47.06006028 46.642969 -47.06006028 46.642969 -42.62011719 41.50146484 C-41.44679614 40.46202594 -40.24255964 39.45559461 -39 38.5 C-38.15179688 37.62988281 -37.30359375 36.75976562 -36.4296875 35.86328125 C-35.62789062 35.08339844 -34.82609375 34.30351562 -34 33.5 C-33.04328407 32.55698964 -32.08760434 31.61292719 -31.1328125 30.66796875 C-30.64329102 30.18360352 -30.15376953 29.69923828 -29.64941406 29.20019531 C-25.13922574 24.72467852 -20.77092486 20.21470625 -16.65234375 15.37109375 C-14.1636141 12.55288689 -11.470803 9.95311348 -8.77734375 7.33203125 C-6.81924918 5.40737396 -6.81924918 5.40737396 -4.875 2.5 C-3 0.5 -3 0.5 0 0 Z " fill="#0F1848" transform="translate(473,477.5)"/>
<path d="M0 0 C4.881441 2.26638332 7.70028068 5.13520912 10 10 C10.89294842 15.52459674 10.94286826 20.34714839 7.6875 25.0625 C5 28 5 28 2 30 C1.01 30 0.02 30 -1 30 C-0.98223511 30.94911758 -0.96447021 31.89823517 -0.94616699 32.87611389 C-0.78375001 41.83578751 -0.66395557 50.79516122 -0.58550262 59.75597477 C-0.54381133 64.36260046 -0.48729824 68.96803467 -0.39648438 73.57397461 C-0.30933543 78.02204972 -0.2616803 82.46898161 -0.24098206 86.91784477 C-0.22623934 88.61201409 -0.19744772 90.30612319 -0.15415955 91.99980354 C0.17086328 105.24764819 0.17086328 105.24764819 -2.7081604 109.55648804 C-4.72878893 111.3632105 -6.63272324 112.69349982 -9 114 C-10.19601942 114.78016734 -11.39145758 115.56122764 -12.5859375 116.34375 C-13.84380221 117.07148592 -15.10714819 117.78980637 -16.375 118.5 C-17.09139648 118.9117749 -17.80779297 119.3235498 -18.54589844 119.74780273 C-20.14728873 120.66744779 -21.75092458 121.58319051 -23.35644531 122.49560547 C-28.3341266 125.32830514 -33.28958238 128.19971571 -38.25 131.0625 C-39.34521973 131.69333496 -40.44043945 132.32416992 -41.56884766 132.97412109 C-49.36477894 137.46716608 -57.14165172 141.99176198 -64.90393066 146.54269409 C-66.13087809 147.26202376 -67.3580092 147.98104024 -68.58532715 148.69973755 C-74.92471637 152.41221134 -81.25181888 156.14230894 -87.546875 159.9296875 C-88.5565332 160.53474121 -89.56619141 161.13979492 -90.60644531 161.76318359 C-92.47939493 162.88739585 -94.34879403 164.01755361 -96.21386719 165.15478516 C-97.04047852 165.65026855 -97.86708984 166.14575195 -98.71875 166.65625 C-99.42966797 167.08744141 -100.14058594 167.51863281 -100.87304688 167.96289062 C-103.23705353 169.11558809 -105.4232599 169.52627103 -108 170 C-107.98667633 170.78403198 -107.97335266 171.56806396 -107.95962524 172.37585449 C-107.83904957 179.79021867 -107.74787587 187.20410283 -107.68912697 194.61919403 C-107.65790686 198.43080204 -107.61560964 202.24159524 -107.54736328 206.05273438 C-107.48183052 209.73568137 -107.44622396 213.41784828 -107.43073654 217.10133362 C-107.41971021 218.50155407 -107.39817781 219.90173518 -107.36561966 221.30162048 C-107.19394431 228.99393389 -107.17108828 234.64596826 -112.4708252 240.55259705 C-114.54000492 242.51112843 -116.59612479 244.34788303 -118.875 246.0625 C-124.60953907 250.57325235 -129.88293193 255.47909362 -135.16552734 260.50805664 C-139.07017188 264.21859916 -143.04490679 267.8177277 -147.11352539 271.34765625 C-149.83974588 273.7355248 -152.48028421 276.21024158 -155.125 278.6875 C-160.23892925 283.44599197 -165.48102237 288.0246574 -170.80761719 292.54272461 C-176.68119434 297.54121479 -182.35414711 302.74708192 -188 308 C-186.64372754 312.06881738 -184.81464824 312.55028275 -181.12109375 314.66015625 C-180.52252563 315.00590195 -179.92395752 315.35164764 -179.30725098 315.70787048 C-178.02312822 316.44852009 -176.73669201 317.18517024 -175.44821167 317.91821289 C-172.08007516 319.83500447 -168.72891096 321.78111927 -165.375 323.72265625 C-164.71853989 324.10152985 -164.06207977 324.48040344 -163.38572693 324.87075806 C-158.84667183 327.49416294 -154.36096203 330.18524013 -149.9375 333 C-130.53625915 345.28914526 -110.77376498 356.94817495 -90.84863281 368.36328125 C-79.78351961 374.72088486 -68.83324704 381.25512619 -58 388 C-58.33 391.3 -58.66 394.6 -59 398 C-62.04415692 398.9378722 -63.53263804 399.19656894 -66.51342773 397.94287109 C-67.39458252 397.39195801 -68.2757373 396.84104492 -69.18359375 396.2734375 C-70.68152466 395.35377197 -70.68152466 395.35377197 -72.2097168 394.41552734 C-73.27488525 393.74215332 -74.34005371 393.0687793 -75.4375 392.375 C-77.12931804 391.33186149 -78.82114842 390.28874148 -80.51411438 389.24746704 C-82.23911613 388.18457868 -83.96046834 387.11595062 -85.68164062 386.046875 C-90.47755089 383.08859721 -95.32821387 380.2275442 -100.1875 377.375 C-102.00665458 376.30232778 -103.82566544 375.2294118 -105.64453125 374.15625 C-106.53479004 373.63160156 -107.42504883 373.10695313 -108.34228516 372.56640625 C-115.4820969 368.35833789 -122.61708868 364.14211584 -129.75 359.92236328 C-132.10906741 358.52698341 -134.46845373 357.13215083 -136.828125 355.73779297 C-165.85318132 338.58317505 -165.85318132 338.58317505 -175.51293945 332.44165039 C-179.02195876 330.21514016 -182.56508755 328.06111012 -186.14453125 325.94921875 C-187.04268555 325.41804443 -187.94083984 324.88687012 -188.86621094 324.33959961 C-190.60425459 323.31493443 -192.34556612 322.29578233 -194.09082031 321.28344727 C-206.5282133 313.9435734 -206.5282133 313.9435734 -209 309 C-209.10113612 306.71824707 -209.135143 304.43344689 -209.14044189 302.14945984 C-209.14341302 301.43665716 -209.14638414 300.72385447 -209.1494453 299.98945171 C-209.15815183 297.58890334 -209.15964219 295.18840473 -209.16113281 292.7878418 C-209.16575962 291.07154229 -209.1707841 289.35524381 -209.17617798 287.63894653 C-209.1893176 282.96739102 -209.19575003 278.29584989 -209.20018864 273.62427878 C-209.20311698 270.70721285 -209.20722133 267.79015088 -209.21169281 264.87308693 C-209.22537214 255.7507875 -209.23503654 246.62849707 -209.2388947 237.50618809 C-209.24337604 226.96753717 -209.26092565 216.4290159 -209.2898953 205.8904044 C-209.31149686 197.7502232 -209.32159817 189.61007852 -209.32293582 181.46986896 C-209.32398499 176.60546408 -209.3299164 171.74118102 -209.34775543 166.87680626 C-209.36420965 162.30087402 -209.36640454 157.7251555 -209.35761642 153.14920425 C-209.35684461 151.46939968 -209.36120769 149.78958374 -209.37107468 148.10980797 C-209.38375418 145.81678 -209.37793965 143.52451352 -209.36749268 141.23149109 C-209.36895924 139.94818751 -209.3704258 138.66488394 -209.3719368 137.34269238 C-208.8818033 132.93773564 -207.49469776 130.24663583 -204.09643555 127.41235352 C-203.387854 126.96819092 -202.67927246 126.52402832 -201.94921875 126.06640625 C-201.1504834 125.56125488 -200.35174805 125.05610352 -199.52880859 124.53564453 C-198.69430176 124.02888184 -197.85979492 123.52211914 -197 123 C-195.7927124 122.26499268 -195.7927124 122.26499268 -194.56103516 121.51513672 C-191.98844499 119.97117725 -189.4028452 118.4514692 -186.8125 116.9375 C-184.85801837 115.78915533 -182.90359284 114.64071517 -180.94921875 113.4921875 C-179.95970215 112.91178711 -178.97018555 112.33138672 -177.95068359 111.73339844 C-174.23698968 109.55176458 -170.53112326 107.35706733 -166.82543945 105.16186523 C-158.44509319 100.19851216 -150.04408498 95.27232554 -141.625 90.375 C-131.86613721 84.69549579 -122.14536026 78.95362665 -112.4375 73.1875 C-111.44632172 72.59893219 -111.44632172 72.59893219 -110.43511963 71.99847412 C-109.13629747 71.22701886 -107.8377914 70.45503118 -106.53961182 69.68249512 C-105.26593681 68.92598087 -103.99067591 68.17212998 -102.71380615 67.42102051 C-99.44352768 65.49048672 -96.2254296 63.50965608 -93.05126953 61.42431641 C-81.03458808 53.62521653 -81.03458808 53.62521653 -74.30175781 54.33496094 C-69.81138713 55.63234848 -66.18857858 57.98050207 -62.375 60.625 C-61.18390625 61.40810547 -61.18390625 61.40810547 -59.96875 62.20703125 C-47.54325457 70.45674543 -47.54325457 70.45674543 -44 74 C-43.84710737 76.24634554 -43.77802533 78.49863174 -43.75 80.75 C-43.71132813 82.59851563 -43.71132813 82.59851563 -43.671875 84.484375 C-44.03410395 88.3653995 -44.52394929 90.01565433 -47 93 C-49.3191896 94.60035915 -51.54151364 95.9657706 -54 97.3125 C-55.52936875 98.18101993 -57.05795897 99.0509116 -58.5859375 99.921875 C-59.43768555 100.40333984 -60.28943359 100.88480469 -61.16699219 101.38085938 C-66.09633289 104.19811097 -70.97147896 107.10738668 -75.85168457 110.00860596 C-77.62662221 111.06346409 -79.40251575 112.11669453 -81.17871094 113.16943359 C-89.46987674 118.08431931 -97.74282613 123.02825095 -106 128 C-109.11992023 129.87345692 -112.24062931 131.74559915 -115.36254883 133.61572266 C-118.57924173 135.54345855 -121.79117733 137.47851985 -124.99609375 139.42578125 C-134.30867261 145.07330634 -143.6154526 150.5384842 -154 154 C-155.16666667 155.91666667 -155.16666667 155.91666667 -156 158 C-156.33 158.66 -156.66 159.32 -157 160 C-157.15733249 162.98763355 -157.25861415 165.95541151 -157.31640625 168.9453125 C-157.33718735 169.8303244 -157.35796844 170.7153363 -157.37937927 171.62716675 C-157.44486598 174.45969741 -157.50375562 177.29232225 -157.5625 180.125 C-157.60568606 182.04297857 -157.64930037 183.96094754 -157.69335938 185.87890625 C-157.80054647 190.58584051 -157.9018164 195.29286967 -158 200 C-156.84757812 200.17015625 -156.84757812 200.17015625 -155.671875 200.34375 C-152.47681627 201.12850127 -150.98952945 202.52410196 -149.015625 205.12890625 C-147.11745893 208.6259122 -146.76654477 212.06559271 -147 216 C-148.57832118 221.26107059 -150.87772684 224.4062234 -155 228 C-159.47211296 230.23605648 -165.15978387 229.61078918 -170 229 C-173.90743226 227.05930864 -176.12175775 224.37464004 -178.4375 220.75 C-179.52496126 215.43352275 -179.9418108 210.16616484 -177.75 205.125 C-175.92190812 202.90517415 -174.20124721 200.85730233 -172 199 C-171.01 199 -170.02 199 -169 199 C-169.01332367 198.43481155 -169.02664734 197.86962311 -169.04037476 197.28730774 C-169.17323056 191.3988829 -169.26365716 185.51088435 -169.32958984 179.62133789 C-169.35974284 177.42422185 -169.40067263 175.22722599 -169.45263672 173.03051758 C-169.52551526 169.87030388 -169.55947147 166.71168259 -169.5859375 163.55078125 C-169.61690521 162.57039383 -169.64787292 161.59000641 -169.67977905 160.57991028 C-169.68304593 153.94375314 -169.68304593 153.94375314 -167.80107117 151.34346008 C-166.27758789 150.03173828 -166.27758789 150.03173828 -163 148 C-162.16863525 147.46189697 -161.33727051 146.92379395 -160.48071289 146.36938477 C-159.6530542 145.89815186 -158.82539551 145.42691895 -157.97265625 144.94140625 C-157.02745117 144.39790527 -156.08224609 143.8544043 -155.10839844 143.29443359 C-154.10325195 142.72289551 -153.09810547 142.15135742 -152.0625 141.5625 C-143.72915991 136.76478618 -135.45144554 131.89506709 -127.25 126.875 C-125.33206049 125.70177511 -123.41409208 124.52859747 -121.49609375 123.35546875 C-120.5716748 122.79005371 -119.64725586 122.22463867 -118.69482422 121.64208984 C-113.79155972 118.65428797 -108.86137628 115.71159462 -103.93334961 112.76489258 C-98.8914007 109.74571663 -93.86308649 106.70499905 -88.84375 103.6484375 C-88.22195358 103.26998184 -87.60015717 102.89152618 -86.95951843 102.50160217 C-83.88153729 100.62792205 -80.80473347 98.75235249 -77.72973633 96.8737793 C-72.80014156 93.86678418 -67.8624086 90.87293689 -62.85546875 87.99609375 C-62.17508545 87.60478271 -61.49470215 87.21347168 -60.79370117 86.81030273 C-59 86 -59 86 -56 86 C-55.89833853 80.77671908 -55.89833853 80.77671908 -58.4375 76.49609375 C-60.40047487 75.16942218 -62.3872802 74.07161419 -64.5 73 C-65.18320312 72.60683594 -65.86640625 72.21367187 -66.5703125 71.80859375 C-71.66237455 69.07184879 -76.25669051 67.80192033 -82 69 C-85.59273971 70.51946781 -88.7856531 72.52033901 -92.0625 74.625 C-94.01098092 75.82671798 -95.96022693 77.02719614 -97.91015625 78.2265625 C-98.91191895 78.85079102 -99.91368164 79.47501953 -100.94580078 80.11816406 C-105.90771889 83.17543543 -110.95538804 86.0819819 -116 89 C-137.7485289 101.63993372 -137.7485289 101.63993372 -159.24609375 114.69921875 C-162.51021568 116.71426116 -165.80317848 118.67956977 -169.09765625 120.64453125 C-170.20906982 121.30791504 -171.3204834 121.97129883 -172.46557617 122.65478516 C-174.69470665 123.98380344 -176.92528099 125.31040373 -179.1574707 126.63427734 C-183.59008911 129.27851251 -187.97087079 131.89956348 -192.1328125 134.95703125 C-195 137 -195 137 -197 137 C-197 190.46 -197 243.92 -197 299 C-192.24486364 294.83925568 -187.5440691 290.68775603 -182.9375 286.375 C-178.25461834 282.01783602 -173.48061647 277.78840323 -168.625 273.625 C-162.65283573 268.50068775 -156.86777687 263.20632348 -151.13769531 257.81347656 C-147.52346305 254.41353441 -143.86632087 251.08938221 -140.10546875 247.8515625 C-137.0887879 245.19867433 -134.13911937 242.47488318 -131.1875 239.75 C-130.62337402 239.22970215 -130.05924805 238.7094043 -129.47802734 238.17333984 C-126.30416765 235.24278463 -126.30416765 235.24278463 -123.30078125 232.140625 C-122 231 -122 231 -119 231 C-119.01110306 230.21152679 -119.02220612 229.42305359 -119.03364563 228.61068726 C-119.13398907 221.1662424 -119.21003581 213.72212718 -119.25906086 206.27718163 C-119.28511309 202.44995562 -119.32042891 198.62329015 -119.37719727 194.79638672 C-119.43167656 191.10050606 -119.46145343 187.40516322 -119.47438622 183.7089119 C-119.48359787 182.30149497 -119.50158679 180.89410625 -119.52865028 179.4869194 C-119.75769873 167.07964172 -119.75769873 167.07964172 -116.78686523 163.28344727 C-114.21886767 161.17933152 -111.847676 159.43887772 -108.921875 157.87890625 C-107.93848145 157.34370361 -106.95508789 156.80850098 -105.94189453 156.25708008 C-104.88856934 155.69786865 -103.83524414 155.13865723 -102.75 154.5625 C-100.49035425 153.33148415 -98.23259348 152.09700302 -95.9765625 150.859375 C-94.8205957 150.22580078 -93.66462891 149.59222656 -92.47363281 148.93945312 C-86.94881223 145.85474869 -81.53586331 142.59184926 -76.125 139.3125 C-66.40642325 133.43288262 -56.62638478 127.67735027 -46.77172852 122.02905273 C-45.26476919 121.15378285 -43.77664391 120.24621493 -42.29296875 119.33203125 C-39.93454311 117.96197479 -37.6018846 116.92838151 -35.0625 115.9375 C-34.19882812 115.59589844 -33.33515625 115.25429688 -32.4453125 114.90234375 C-30 114 -30 114 -26.4375 113 C-25.633125 112.67 -24.82875 112.34 -24 112 C-23.87496094 111.36449219 -23.74992188 110.72898437 -23.62109375 110.07421875 C-23 108 -23 108 -21.0390625 106.83203125 C-19.43874785 106.15617021 -17.83457119 105.48937682 -16.2265625 104.83203125 C-12.69669869 101.92763454 -11.93711748 98.39453863 -11 94 C-10.60776702 89.03898175 -10.6489847 84.09333643 -10.70703125 79.12109375 C-10.71263764 77.69906566 -10.7169028 76.27703172 -10.71989441 74.85499573 C-10.73126131 71.14117992 -10.76065628 67.42772506 -10.79400635 63.71405029 C-10.82488489 59.91293213 -10.83843745 56.11175474 -10.85351562 52.31054688 C-10.88553546 44.87353469 -10.93663068 37.43681823 -11 30 C-11.76828125 29.89429688 -12.5365625 29.78859375 -13.328125 29.6796875 C-17.29351262 28.67094854 -18.66662873 26.24079343 -21 23 C-22.46905523 18.59283431 -22.84750197 14.59007069 -22 10 C-16.45861366 1.0119605 -10.21613457 -1.08250433 0 0 Z " fill="#0F1848" transform="translate(337,321)"/>
<path d="M0 0 C0.66 0 1.32 0 2 0 C2.75486433 23.30218089 3.3692884 46.60762059 3.5483284 69.9220562 C3.5847733 74.5680696 3.63972928 79.21243294 3.73388672 83.85766602 C3.82671462 88.46288467 3.87532555 93.06662348 3.89283371 97.67272377 C3.90682438 99.39957645 3.9362264 101.12638311 3.98213577 102.85268211 C4.32189645 116.21037635 4.32189645 116.21037635 0.96818542 120.75073242 C-1.49682617 122.89331055 -1.49682617 122.89331055 -3.96916199 124.53910828 C-6.36661206 125.94405822 -6.36661206 125.94405822 -6.96484375 129.4140625 C-6.94657003 131.55991916 -6.92572421 133.70575541 -6.90234375 135.8515625 C-8.72884519 141.09056664 -13.27255259 142.51399858 -18 145 C-19.70221507 145.9685466 -21.40427859 146.9373959 -23.1013031 147.91500854 C-24.91014979 148.95655501 -26.72371815 149.98935613 -28.5390625 151.01953125 C-29.14911133 151.36580566 -29.75916016 151.71208008 -30.38769531 152.06884766 C-31.63618702 152.77689369 -32.88488732 153.48457201 -34.13378906 154.19189453 C-35.9705074 155.2327654 -37.80564528 156.27638045 -39.640625 157.3203125 C-40.71860352 157.93148926 -41.79658203 158.54266602 -42.90722656 159.17236328 C-45.04130182 160.43346901 -47.13613142 161.76257308 -49.19433594 163.14404297 C-51.73626948 164.8255413 -54.18806823 165.94359022 -57 167.0859375 C-61.62879821 169.20144293 -66.85602098 171.77902726 -70.4140625 175.46484375 C-72.71113964 177.68836916 -75.33378744 179.01146657 -78.125 180.5625 C-79.39774258 181.27626217 -80.66985142 181.99115527 -81.94140625 182.70703125 C-82.6080127 183.08166504 -83.27461914 183.45629883 -83.96142578 183.84228516 C-87.3536903 185.76876639 -90.70616379 187.76180887 -94.0625 189.75 C-100.847747 193.75600602 -107.6643473 197.70563689 -114.5 201.625 C-115.89037476 202.42502441 -115.89037476 202.42502441 -117.30883789 203.24121094 C-118.16598389 203.73137695 -119.02312988 204.22154297 -119.90625 204.7265625 C-120.67259766 205.16564941 -121.43894531 205.60473633 -122.22851562 206.05712891 C-124 207 -124 207 -125 207 C-125.50720912 204.14694871 -126.00593634 201.29283186 -126.5 198.4375 C-126.64308594 197.63763672 -126.78617187 196.83777344 -126.93359375 196.01367188 C-128.42540839 187.31141982 -128.90888224 179.70706572 -124 172 C-117.56316619 165.97644605 -109.88117341 162.00604322 -101.796875 158.68359375 C-97.53947866 156.86117091 -93.53362359 154.64259796 -89.5 152.375 C-88.32630859 151.71902832 -88.32630859 151.71902832 -87.12890625 151.04980469 C-78.77507959 146.35500826 -70.54381941 141.45338977 -62.41015625 136.38671875 C-58.73127422 134.11572834 -55.05151767 131.99762127 -51.1484375 130.13671875 C-50.45484131 129.80357666 -49.76124512 129.47043457 -49.04663086 129.12719727 C-47.69463801 128.48476983 -46.33645969 127.85511014 -44.97094727 127.24194336 C-42.90439916 126.26201381 -40.97011219 125.162557 -39 124 C-38.23244385 123.56203598 -37.4648877 123.12407196 -36.67407227 122.6728363 C-32.38606485 119.6526847 -30.2923253 117.37970305 -29.18617249 112.15893555 C-28.77737972 107.28392836 -28.88376824 102.41367752 -28.97265625 97.52734375 C-28.97208051 95.71708061 -28.96724522 93.9068143 -28.95835876 92.09657288 C-28.94510196 87.34585627 -28.9836482 82.59702219 -29.03503418 77.84661865 C-29.09822258 71.15384394 -29.09213439 64.46073251 -29.09165955 57.76771545 C-29.0914387 54.20808898 -29.11161977 50.64950151 -29.14820862 47.09007263 C-29.1576125 45.45840529 -29.16689134 43.82673723 -29.17602539 42.19506836 C-29.18800461 41.46604309 -29.19998383 40.73701782 -29.21232605 39.98590088 C-29.22693207 34.53310564 -28.76082409 29.28721561 -25.35522461 24.86352539 C-24.71077393 24.28078857 -24.06632324 23.69805176 -23.40234375 23.09765625 C-22.68691406 22.43854248 -21.97148437 21.77942871 -21.234375 21.1003418 C-20.47640625 20.427854 -19.7184375 19.75536621 -18.9375 19.0625 C-18.17050781 18.3610083 -17.40351563 17.6595166 -16.61328125 16.93676758 C-11.97119474 12.70528936 -7.27774264 8.52187218 -2.46875 4.48046875 C-0.73871753 2.9555794 -0.73871753 2.9555794 0 0 Z " fill="#F8F8FA" transform="translate(467,497)"/>
<path d="M0 0 C5.61 0 11.22 0 17 0 C17 36.3 17 72.6 17 110 C11.72 110 6.44 110 1 110 C0.67 106.7 0.34 103.4 0 100 C-0.54527344 100.54269531 -1.09054687 101.08539062 -1.65234375 101.64453125 C-2.40644531 102.35996094 -3.16054687 103.07539062 -3.9375 103.8125 C-4.66839844 104.52019531 -5.39929687 105.22789062 -6.15234375 105.95703125 C-12.64555095 110.61539526 -19.67023107 111.53746463 -27.5 111.4375 C-28.33442627 111.42992676 -29.16885254 111.42235352 -30.02856445 111.41455078 C-36.11965189 111.25097556 -40.87437488 110.47149557 -46 107 C-46.67933594 106.59910156 -47.35867188 106.19820312 -48.05859375 105.78515625 C-57.28787728 99.76605829 -61.70820298 90.01485445 -64.33984375 79.625 C-66.08916577 70.01925539 -66.12146835 61.47746159 -61 53 C-60.56429688 52.24074219 -60.12859375 51.48148438 -59.6796875 50.69921875 C-53.78429811 41.11518408 -45.99374001 34.86681928 -35 32 C-23.44851482 30.86727009 -14.43727977 31.81442933 -4.98046875 38.66015625 C-2.94153677 40.16930344 -2.94153677 40.16930344 0 41 C0 27.47 0 13.94 0 0 Z " fill="#2569FC" transform="translate(1269,485)"/>
<path d="M0 0 C15.84 0 31.68 0 48 0 C48 16.5 48 33 48 50 C44.7 50 41.4 50 38 50 C36.16780354 48.16780354 36.76098672 45.24286259 36.68359375 42.77734375 C36.64169922 41.51728516 36.59980469 40.25722656 36.55664062 38.95898438 C36.51682404 37.61849264 36.47711186 36.2779978 36.4375 34.9375 C36.39431958 33.59308477 36.35070544 32.2486834 36.30664062 30.90429688 C36.20014642 27.6029766 36.0981354 24.30157764 36 21 C35.49082031 21.83789062 34.98164063 22.67578125 34.45703125 23.5390625 C31.70968586 27.65706153 28.22968151 30.94446568 24.6875 34.375 C20.14207321 38.84230058 15.715319 43.30646826 11.6015625 48.1796875 C8.95053223 51.19280971 6.05127038 53.95620448 3.1953125 56.7734375 C0.55993257 59.44633174 -1.87766489 62.25368303 -4.3203125 65.1015625 C-5.98204576 66.97970753 -7.71125525 68.74305516 -9.5 70.5 C-14.28049096 75.20546083 -18.61712828 80.27116428 -22.8125 85.5 C-23.534375 86.325 -24.25625 87.15 -25 88 C-25.66 88 -26.32 88 -27 88 C-27.27070313 88.5878125 -27.54140625 89.175625 -27.8203125 89.78125 C-31.14354519 96.03156844 -36.87825323 100.90235196 -41.875 105.8125 C-47.37518847 111.21772367 -52.21744359 116.94512455 -57 123 C-58 124 -58 124 -61.06640625 124.23828125 C-65.52907292 123.9679509 -68.84087772 122.85854265 -72.9375 121.1875 C-73.60201172 120.92646484 -74.26652344 120.66542969 -74.95117188 120.39648438 C-77.69273896 119.31953513 -80.43051793 118.23995249 -83.14501953 117.09619141 C-88.02725091 115.06865679 -88.02725091 115.06865679 -93 116 C-94.86341672 117.83448168 -96.55481538 119.64733406 -98.25 121.625 C-101.33121899 125.1101795 -104.34547166 128.46296919 -107.9375 131.4375 C-111.4559039 134.39210287 -114.53946721 137.66851408 -117.625 141.0625 C-119.74683913 143.3779152 -121.87290288 145.68941527 -124 148 C-124.59216309 148.64646484 -125.18432617 149.29292969 -125.79443359 149.95898438 C-127.61463105 151.92921666 -129.45992306 153.8727342 -131.3125 155.8125 C-131.87469238 156.42939697 -132.43688477 157.04629395 -133.01611328 157.68188477 C-135.99246954 160.75324975 -137.35011499 161.89854116 -141.703125 162.578125 C-145.19037853 161.96661609 -146.20519968 161.5756731 -148.4375 158.9375 C-150.81236689 156.30346056 -153.18339651 153.87568003 -155.875 151.5625 C-158.93848884 148.91949002 -161.97799244 146.25293934 -165 143.5625 C-165.763125 142.88316406 -166.52625 142.20382812 -167.3125 141.50390625 C-167.869375 141.00761719 -168.42625 140.51132812 -169 140 C-172.86778691 141.60394007 -175.62646356 144.22636012 -178.625 147.0625 C-179.69495303 148.05897986 -180.76527107 149.05506793 -181.8359375 150.05078125 C-182.63402832 150.79642334 -182.63402832 150.79642334 -183.44824219 151.55712891 C-188.60172711 156.34899421 -193.86220227 161.02541462 -199.1875 165.625 C-201.72487835 167.83185812 -204.1409486 170.10367239 -206.5 172.5 C-208.75797943 174.79326036 -211.05996504 176.96428028 -213.5 179.0625 C-217.60510344 182.59834105 -221.54998354 186.29332197 -225.5 190 C-229.93471665 194.1585265 -234.38555988 198.27370743 -238.9921875 202.2421875 C-241.63696418 204.55765346 -244.22480863 206.93375012 -246.8125 209.3125 C-247.32143799 209.78018799 -247.83037598 210.24787598 -248.35473633 210.72973633 C-249.3887603 211.68024235 -250.42269547 212.630845 -251.45654297 213.58154297 C-254.82355204 216.67586798 -258.19614544 219.76344568 -261.59375 222.82421875 C-263.02751584 224.12065962 -264.44913969 225.43105992 -265.84375 226.76953125 C-268.15304938 228.9079896 -269.41631333 229.9861027 -272.625 230.0625 C-275.53767041 228.75946324 -277.12532839 227.59569915 -279 225 C-279.01429342 222.26519242 -278.49893577 220.59198366 -276.72753906 218.49023438 C-275.01199927 216.80702391 -273.24448503 215.20961538 -271.4375 213.625 C-270.79417725 213.04484131 -270.15085449 212.46468262 -269.48803711 211.86694336 C-265.77659427 208.53044108 -262.01658418 205.24878677 -258.23828125 201.98828125 C-254.35230357 198.53633947 -250.57902234 194.96266307 -246.78515625 191.41015625 C-226.06966692 172.0151762 -226.06966692 172.0151762 -218.55859375 166.06640625 C-213.00538491 161.66102223 -207.95759605 157.05875771 -203 152 C-198.12821347 147.02912629 -193.15135813 142.46681422 -187.65625 138.17578125 C-183.78462672 135.0044663 -180.29957072 131.44606215 -176.80078125 127.87109375 C-173.7953057 125.86325164 -171.65840914 125.25010096 -168.02758789 125.46850586 C-164.13603753 126.48860281 -161.77244747 129.22468473 -159.0625 132.0625 C-157.8485477 133.25614122 -156.63240508 134.447559 -155.4140625 135.63671875 C-154.83172852 136.21470215 -154.24939453 136.79268555 -153.64941406 137.38818359 C-151.49564818 139.49285534 -149.26463161 141.4642615 -146.9375 143.375 C-146.28652344 143.91898438 -145.63554687 144.46296875 -144.96484375 145.0234375 C-142.98403838 146.20791372 -142.98403838 146.20791372 -140.44921875 145.87109375 C-137.65125786 144.87596571 -136.70099021 143.9962782 -134.875 141.6875 C-130.17354942 135.89431931 -125.07010385 130.46830222 -120 125 C-119.50649048 124.46611664 -119.01298096 123.93223328 -118.5045166 123.38217163 C-115.52632623 120.16721598 -112.51544591 116.98787566 -109.46557617 113.84082031 C-108.43522303 112.76815997 -107.41485349 111.68583135 -106.40405273 110.59472656 C-96.86775469 100.32088992 -96.86775469 100.32088992 -90.71875 100.08203125 C-86.21857475 100.6494427 -82.46450753 102.18447644 -78.5625 104.4375 C-77.37700357 105.0833206 -76.19083013 105.72790036 -75.00390625 106.37109375 C-74.01261719 106.90863281 -73.02132812 107.44617188 -72 108 C-68.39427296 109.20190901 -65.7897565 109.32670315 -62 109 C-58.20766034 106.38937508 -55.50945556 103.36127768 -52.6875 99.75 C-49.29867868 95.51818831 -45.77328482 91.65846988 -41.890625 87.8828125 C-39.42942069 85.43177845 -37.17868527 82.8309379 -34.9140625 80.19921875 C-32.64845431 77.59608118 -30.32696448 75.04841276 -28 72.5 C-25.06299293 69.28306639 -22.15728251 66.04866916 -19.3125 62.75 C-17.12730613 60.23216538 -14.87568539 57.83881222 -12.5 55.5 C-9.53284199 52.57869212 -6.79941029 49.52008327 -4.08203125 46.3671875 C-0.92548781 42.77832198 2.33807432 39.29004096 5.58984375 35.78759766 C8.34164872 32.81713481 11.05036145 29.82358805 13.6875 26.75 C16.98552575 22.92266148 20.55988127 19.40445449 24.1796875 15.8828125 C26.06383898 14.12246661 26.06383898 14.12246661 27 12 C18.09 12 9.18 12 0 12 C0 8.04 0 4.08 0 0 Z " fill="#0D1747" transform="translate(458,405)"/>
<path d="M0 0 C2.95320119 2.11860085 5.4502945 4.42843988 8 7 C8.556875 6.45730469 9.11375 5.91460938 9.6875 5.35546875 C17.81211795 -2.26136058 23.53619481 -4.62846857 34.7421875 -4.35546875 C42.84731432 -3.4710964 49.35379964 -0.0233935 54.8125 6 C56 8 56 8 56 12 C56.66 12 57.32 12 58 12 C59.05946564 15.17839691 59.12064296 17.41845348 59.11352539 20.7565918 C59.11341209 22.52808846 59.11341209 22.52808846 59.11329651 24.33537292 C59.10813522 25.61044205 59.10297394 26.88551117 59.09765625 28.19921875 C59.0962413 29.50454056 59.09482635 30.80986237 59.09336853 32.15473938 C59.0895538 35.62189656 59.07973244 39.08901174 59.06866455 42.55615234 C59.05842798 46.09537182 59.0538661 49.6345981 59.04882812 53.17382812 C59.03810923 60.1159044 59.02052087 67.05794585 59 74 C53.72 74 48.44 74 43 74 C42.98541748 72.52724609 42.97083496 71.05449219 42.95581055 69.53710938 C42.89764728 64.05021416 42.820415 58.56372159 42.73754883 53.07714844 C42.70438427 50.70677242 42.67632622 48.33631905 42.65356445 45.96582031 C42.61986312 42.54979624 42.56753791 39.1344757 42.51171875 35.71875 C42.50532883 34.66635132 42.4989389 33.61395264 42.49235535 32.52966309 C42.35997165 25.83874663 42.06445441 19.06445441 37.0625 14.0625 C32.25638993 11.58662511 27.16602565 11.07090462 21.91015625 12.61328125 C17.11115405 14.64190974 15.19823761 16.7291543 12.86393738 21.5526123 C11.2336599 26.17091121 11.39628841 30.86771495 11.390625 35.71875 C11.37408875 36.81723267 11.35755249 37.91571533 11.34051514 39.04748535 C11.29220403 42.53171475 11.2707009 46.01550817 11.25 49.5 C11.22182633 51.87241757 11.19189696 54.24481498 11.16015625 56.6171875 C11.08644903 62.41142243 11.03677087 68.20541772 11 74 C5.72 74 0.44 74 -5 74 C-5.01458252 72.52724609 -5.02916504 71.05449219 -5.04418945 69.53710938 C-5.10235272 64.05021416 -5.179585 58.56372159 -5.26245117 53.07714844 C-5.29561573 50.70677242 -5.32367378 48.33631905 -5.34643555 45.96582031 C-5.38013688 42.54979624 -5.43246209 39.1344757 -5.48828125 35.71875 C-5.49467117 34.66635132 -5.5010611 33.61395264 -5.50764465 32.52966309 C-5.64002835 25.83874663 -5.93554559 19.06445441 -10.9375 14.0625 C-15.67502283 11.62195793 -20.77131158 11.37396817 -26 12 C-30.05127808 13.36079398 -32.54697286 15.29025748 -34.875 18.9375 C-36.46791727 23.27377479 -37.11839078 27.2747116 -37.20532227 31.88208008 C-37.22526749 32.82267776 -37.24521271 33.76327545 -37.26576233 34.7323761 C-37.29083107 36.2357679 -37.29083107 36.2357679 -37.31640625 37.76953125 C-37.33718735 38.80567062 -37.35796844 39.84181 -37.37937927 40.90934753 C-37.4446213 44.21033265 -37.50364179 47.51139549 -37.5625 50.8125 C-37.60570932 53.05404441 -37.64932438 55.29558103 -37.69335938 57.53710938 C-37.80027671 63.02466048 -37.90161538 68.51228955 -38 74 C-43.28 74 -48.56 74 -54 74 C-54 48.92 -54 23.84 -54 -2 C-49.05 -2 -44.1 -2 -39 -2 C-38.34 0.31 -37.68 2.62 -37 5 C-36.57589844 4.60167969 -36.15179687 4.20335937 -35.71484375 3.79296875 C-25.49547222 -5.43815587 -12.14135447 -7.58511058 0 0 Z " fill="#0B1546" transform="translate(931,521)"/>
<path d="M0 0 C8.46337931 6.24949085 12.31891146 13.30564322 15.17578125 23.3046875 C15.17578125 28.5846875 15.17578125 33.8646875 15.17578125 39.3046875 C-3.96421875 39.3046875 -23.10421875 39.3046875 -42.82421875 39.3046875 C-38.83597383 50.30934924 -38.83597383 50.30934924 -30.82421875 57.3046875 C-24.69421965 59.33532902 -17.33921734 59.37833705 -11.44921875 56.6796875 C-8.69333303 55.13438316 -7.13276418 53.56128018 -5.32421875 50.9921875 C-4.08671875 49.661875 -4.08671875 49.661875 -2.82421875 48.3046875 C0.30454162 48.3046875 2.25508943 48.5056303 5.17578125 49.3046875 C5.85898438 49.48128906 6.5421875 49.65789063 7.24609375 49.83984375 C8.89969906 50.29173994 10.53957296 50.79337241 12.17578125 51.3046875 C11.31721621 58.60249037 6.7192418 63.20872178 1.33203125 67.76171875 C-7.9163034 74.37963938 -19.94778342 74.15349697 -30.82421875 73.3046875 C-40.15023126 71.57805547 -47.19163466 66.42616335 -52.64453125 58.73828125 C-59.60015478 47.46479481 -61.87293641 35.44388256 -59.2109375 22.26953125 C-55.69428297 11.50268147 -49.22739489 3.21985502 -39.40234375 -2.390625 C-27.18395409 -8.57387067 -11.62066504 -6.97561359 0 0 Z " fill="#2469FC" transform="translate(1355.82421875,522.6953125)"/>
<path d="M0 0 C5.21474901 3.69185771 8.18385164 8.30155493 10.1875 14.3125 C10.27602819 16.19906815 10.30512222 18.08865524 10.30102539 19.97729492 C10.30091209 21.71876045 10.30091209 21.71876045 10.30079651 23.4954071 C10.29563522 24.74860245 10.29047394 26.00179779 10.28515625 27.29296875 C10.2837413 28.57609451 10.28232635 29.85922028 10.28086853 31.18122864 C10.27705405 34.58920241 10.26723291 37.99713343 10.25616455 41.40509033 C10.24592743 44.88398663 10.24136598 48.36288985 10.23632812 51.84179688 C10.22560967 58.66538389 10.20802152 65.48893549 10.1875 72.3125 C4.9075 72.3125 -0.3725 72.3125 -5.8125 72.3125 C-6.3075 68.3525 -6.3075 68.3525 -6.8125 64.3125 C-7.28300781 64.72242188 -7.75351563 65.13234375 -8.23828125 65.5546875 C-8.86089844 66.09351563 -9.48351563 66.63234375 -10.125 67.1875 C-10.73988281 67.72117187 -11.35476563 68.25484375 -11.98828125 68.8046875 C-19.38536489 74.9187652 -28.72069573 73.65902815 -37.8125 73.3125 C-43.60041419 72.70688865 -47.86688962 70.62488542 -51.8125 66.3125 C-52.54533203 65.53132812 -52.54533203 65.53132812 -53.29296875 64.734375 C-58.21258683 58.39537131 -57.701797 50.97413566 -56.8125 43.3125 C-55.32536451 37.52049862 -50.97826385 34.56787513 -46.08203125 31.59375 C-34.02108048 24.78481394 -20.3454205 24.96697863 -6.8125 25.3125 C-7.83046121 17.33326271 -7.83046121 17.33326271 -12.8125 11.3125 C-12.8125 10.6525 -12.8125 9.9925 -12.8125 9.3125 C-23.25843354 8.43818997 -23.25843354 8.43818997 -33.1875 10.875 C-36.53263538 13.98119714 -37.04506995 15.87845972 -37.8125 20.3125 C-43.74252267 20.69101209 -48.28489641 19.41825375 -53.8125 17.3125 C-53.94576142 10.11638315 -51.29017463 6.63501385 -46.36328125 1.51953125 C-42.81967938 -1.54652549 -39.27300509 -3.33143822 -34.8125 -4.6875 C-34.22339844 -4.87699219 -33.63429688 -5.06648437 -33.02734375 -5.26171875 C-21.65320342 -7.44828188 -9.91361562 -5.9644212 0 0 Z " fill="#2367FC" transform="translate(1182.8125,522.6875)"/>
<path d="M0 0 C6.71712467 5.49231307 10.93542107 12.2651218 13.03515625 20.6640625 C13.03515625 26.2740625 13.03515625 31.8840625 13.03515625 37.6640625 C-5.77484375 37.6640625 -24.58484375 37.6640625 -43.96484375 37.6640625 C-40.08816548 48.68602827 -40.08816548 48.68602827 -31.96484375 55.6640625 C-25.94145273 57.67185951 -18.21083537 58.16484477 -12.37109375 55.46484375 C-8.93495647 52.91979431 -6.45863788 50.12975827 -3.96484375 46.6640625 C1.69620214 47.16064547 5.91190096 48.20916934 11.03515625 50.6640625 C9.68649481 56.65811333 6.60656831 60.70636841 2.03515625 64.6640625 C-9.90001889 71.88757373 -22.3379031 73.78812268 -35.96484375 70.5390625 C-44.88773062 67.67624722 -52.03314548 61.17090114 -56.41015625 52.94921875 C-61.72985822 41.62585312 -62.70955239 29.74750379 -58.96484375 17.6640625 C-54.00262947 5.45773978 -46.76596409 -1.51658339 -34.65234375 -6.7734375 C-21.89480079 -8.71950338 -10.60926864 -7.59676026 0 0 Z " fill="#0D1748" transform="translate(717.96484375,524.3359375)"/>
<path d="M0 0 C5.94 0 11.88 0 18 0 C20.70658436 5.95093984 23.15898118 11.91398239 25.375 18.0625 C25.98393761 19.73453436 26.59331991 21.40640682 27.203125 23.078125 C27.50412109 23.90505859 27.80511719 24.73199219 28.11523438 25.58398438 C29.42814409 29.16912636 30.77585504 32.74087179 32.125 36.3125 C34.02067552 41.33391718 35.84657089 46.37331467 37.625 51.4375 C39.23215883 55.98170309 41.00599271 60.35075138 43.03515625 64.71875 C44.20034498 67.47369017 45.0934591 70.27486364 46 73.125 C47.52382888 77.85370709 49.33701357 81.81530704 52 86 C54.09390208 80.86548479 56.12400666 75.71853704 58 70.5 C59.53022435 66.24739978 61.16813655 62.05461228 62.8671875 57.8671875 C64.29887258 54.2435432 65.64659188 50.59094396 67 46.9375 C68.55228949 42.75256598 70.11032025 38.60956412 72 34.5625 C74.30348417 29.57964932 76.03035814 24.38981593 77.80664062 19.20141602 C79.35429112 14.70731697 81.12099737 10.36906303 83 6 C83.66 4.02 84.32 2.04 85 0 C91.27 0 97.54 0 104 0 C101.84845415 7.53041049 99.23504188 14.65290979 96.21728516 21.87255859 C95.33009961 23.99744152 94.44548479 26.12336801 93.5625 28.25 C93.26021484 28.97751465 92.95792969 29.7050293 92.64648438 30.45458984 C90.27150234 36.22222094 88.14945758 42.04296802 86.140625 47.94921875 C85 51 85 51 83.48046875 54.03125 C82.03550121 56.92881023 81.02533476 59.72564349 80.0625 62.8125 C78.61127701 67.28756405 76.96246673 71.53528624 74.99609375 75.8046875 C73.17949298 79.80833312 71.60126652 83.90658049 70 88 C69.35998047 89.62228516 69.35998047 89.62228516 68.70703125 91.27734375 C68.26746094 92.40269531 67.82789063 93.52804687 67.375 94.6875 C66.97023438 95.72261719 66.56546875 96.75773438 66.1484375 97.82421875 C64.94099099 101.16317799 63.9754177 104.58603805 63 108 C55.74 108 48.48 108 41 108 C37.63355792 100.14496849 37.63355792 100.14496849 36.5703125 97.01953125 C36.33513916 96.33705322 36.09996582 95.6545752 35.85766602 94.95141602 C35.61588623 94.24557373 35.37410645 93.53973145 35.125 92.8125 C33.04880071 86.84206239 30.811428 80.99252475 28.33203125 75.17578125 C23.42213305 63.46977763 19.06499619 51.53145959 14.63793945 39.63720703 C12.47074619 33.84115014 10.25421969 28.06740379 7.98046875 22.3125 C7.60020035 21.34961563 7.60020035 21.34961563 7.21224976 20.36727905 C5.96519834 17.21341206 4.71251993 14.06195739 3.45410156 10.91259766 C3.00389648 9.77870605 2.55369141 8.64481445 2.08984375 7.4765625 C1.68628662 6.46674316 1.28272949 5.45692383 0.86694336 4.41650391 C0 2 0 2 0 0 Z " fill="#0E1747" transform="translate(561,487)"/>
<path d="M0 0 C5.28 0 10.56 0 16 0 C16 25.41 16 50.82 16 77 C11.05 77 6.1 77 1 77 C1 74.03 1 71.06 1 68 C0.53851562 68.47050781 0.07703125 68.94101562 -0.3984375 69.42578125 C-8.41390068 77.07690519 -16.34759885 78.53153314 -27.23168945 78.49243164 C-34.05429893 78.23105706 -37.79828306 76.23559755 -42.4765625 71.5078125 C-47.8737504 65.41624955 -50.13129191 60.34394167 -50.11352539 52.31347656 C-50.11344986 51.17259583 -50.11337433 50.03171509 -50.11329651 48.85626221 C-50.10813522 47.63010193 -50.10297394 46.40394165 -50.09765625 45.140625 C-50.0962413 43.88111023 -50.09482635 42.62159546 -50.09336853 41.32391357 C-50.08872073 37.98334881 -50.07974281 34.64285279 -50.06866455 31.30230713 C-50.05841598 27.8903462 -50.05386354 24.47837815 -50.04882812 21.06640625 C-50.03779963 14.37758275 -50.02053524 7.68880079 -50 1 C-44.72 1 -39.44 1 -34 1 C-33.99589111 2.50304687 -33.99178223 4.00609375 -33.98754883 5.5546875 C-33.96570856 11.15350208 -33.91136661 16.75161882 -33.84741211 22.35009766 C-33.82427502 24.76897472 -33.80984653 27.18795191 -33.80444336 29.60693359 C-33.79512298 33.09275403 -33.75406095 36.57700877 -33.70703125 40.0625 C-33.7109639 41.13677246 -33.71489655 42.21104492 -33.71894836 43.31787109 C-33.59186351 49.91989833 -32.70198517 55.08501443 -28 60 C-22.77915607 63.07001699 -17.23294868 62.62604755 -11.41796875 61.5 C-6.64039086 60.20198939 -6.64039086 60.20198939 -3.5625 56.5625 C-3.2840625 55.2940625 -3.2840625 55.2940625 -3 54 C-2.66497467 53.39117981 -2.32994934 52.78235962 -1.98477173 52.15509033 C-0.81983105 49.60571536 -0.72352983 47.75296853 -0.68115234 44.95605469 C-0.66128265 43.95531921 -0.64141296 42.95458374 -0.62094116 41.92352295 C-0.60361435 40.31395721 -0.60361435 40.31395721 -0.5859375 38.671875 C-0.56657135 37.56773254 -0.5472052 36.46359009 -0.5272522 35.32598877 C-0.46749108 31.80073767 -0.42108436 28.27545385 -0.375 24.75 C-0.33681708 22.35936079 -0.29776517 19.96873529 -0.2578125 17.578125 C-0.16179216 11.7188614 -0.07774785 5.8595334 0 0 Z " fill="#0D1647" transform="translate(845,518)"/>
<path d="M0 0 C27.06 0 54.12 0 82 0 C82 5.28 82 10.56 82 16 C71.11 16 60.22 16 49 16 C49 46.36 49 76.72 49 108 C43.39 108 37.78 108 32 108 C32 77.64 32 47.28 32 16 C21.44 16 10.88 16 0 16 C0 10.72 0 5.44 0 0 Z " fill="#276BFC" transform="translate(995,487)"/>
<path d="M0 0 C2.64 1.32 5.28 2.64 8 4 C8 27.43 8 50.86 8 75 C4.7 75 1.4 75 -2 75 C-1.98839844 75.99902344 -1.97679687 76.99804688 -1.96484375 78.02734375 C-1.95582031 79.31769531 -1.94679688 80.60804688 -1.9375 81.9375 C-1.92589844 83.22527344 -1.91429687 84.51304687 -1.90234375 85.83984375 C-2 89 -2 89 -3 90 C-6.00331018 90.14193337 -8.99217134 90.04236378 -12 90 C-12 84.72 -12 79.44 -12 74 C-15.3 74 -18.6 74 -22 74 C-22.28928323 68.27511575 -22.57390489 62.55002409 -22.85449219 56.82470703 C-22.95026397 54.88323954 -23.04723703 52.94183088 -23.14550781 51.00048828 C-24.94085583 15.47824527 -24.94085583 15.47824527 -18.9375 8.65625 C-12.78143357 2.25718095 -9.2085574 -0.81251977 0 0 Z " fill="#1D65FD" transform="translate(375,537)"/>
<path d="M0 0 C5.78343622 0.13355948 9.1466125 2.08875368 13.7734375 5.37109375 C15.41697425 6.47218573 17.06297212 7.56960981 18.7109375 8.6640625 C19.60683594 9.26524902 20.50273437 9.86643555 21.42578125 10.48583984 C27.10973429 14.21009882 32.95268748 17.67884022 38.7734375 21.18359375 C42.1893633 23.24679306 45.60302116 25.3133298 49.00683594 27.39648438 C51.3703508 28.81609048 53.73151767 30.18386208 56.14160156 31.51757812 C57.04889511 32.03496552 57.04889511 32.03496552 57.97451782 32.56280518 C59.65278494 33.51883963 61.34292685 34.45394073 63.03369141 35.38769531 C65.3984375 37.43359375 65.3984375 37.43359375 65.87646484 40.54980469 C65.3984375 43.43359375 65.3984375 43.43359375 63.3984375 45.43359375 C52.24711237 47.37295464 41.25038197 37.56139719 32.44384766 31.76660156 C28.49824307 29.19522402 24.508069 26.69388449 20.5234375 24.18359375 C19.34672485 23.44085205 19.34672485 23.44085205 18.14624023 22.68310547 C13.23837244 19.58674099 8.3194718 16.50924019 3.3984375 13.43359375 C3.3984375 24.98359375 3.3984375 36.53359375 3.3984375 48.43359375 C6.6984375 48.43359375 9.9984375 48.43359375 13.3984375 48.43359375 C13.3984375 61.63359375 13.3984375 74.83359375 13.3984375 88.43359375 C7.3984375 87.43359375 7.3984375 87.43359375 2.3984375 85.43359375 C2.3984375 76.52359375 2.3984375 67.61359375 2.3984375 58.43359375 C-0.5715625 58.43359375 -3.5415625 58.43359375 -6.6015625 58.43359375 C-6.6015625 67.01359375 -6.6015625 75.59359375 -6.6015625 84.43359375 C-9.9015625 86.08359375 -13.2015625 87.73359375 -16.6015625 89.43359375 C-16.6015625 75.90359375 -16.6015625 62.37359375 -16.6015625 48.43359375 C-13.3015625 48.43359375 -10.0015625 48.43359375 -6.6015625 48.43359375 C-6.61203613 47.05059082 -6.62250977 45.66758789 -6.63330078 44.24267578 C-6.66942475 39.12518896 -6.69243522 34.00771346 -6.71142578 28.89013672 C-6.72150075 26.67266954 -6.73516109 24.4552157 -6.75244141 22.23779297 C-6.77662413 19.05563063 -6.78803047 15.87364351 -6.796875 12.69140625 C-6.80719757 11.69553497 -6.81752014 10.6996637 -6.82815552 9.6736145 C-6.82830658 8.75281097 -6.82845764 7.83200745 -6.82861328 6.88330078 C-6.8330545 6.07055695 -6.83749573 5.25781311 -6.84207153 4.42044067 C-6.33226667 0.20893885 -3.63010408 0.09345032 0 0 Z " fill="#0F1849" transform="translate(369.6015625,407.56640625)"/>
<path d="M0 0 C15.84 0 31.68 0 48 0 C48 16.5 48 33 48 50 C44.7 50 41.4 50 38 50 C36.16780354 48.16780354 36.76098672 45.24286259 36.68359375 42.77734375 C36.64169922 41.51728516 36.59980469 40.25722656 36.55664062 38.95898438 C36.51682404 37.61849264 36.47711186 36.2779978 36.4375 34.9375 C36.39431958 33.59308477 36.35070544 32.2486834 36.30664062 30.90429688 C36.20014642 27.6029766 36.0981354 24.30157764 36 21 C35.49082031 21.83789062 34.98164063 22.67578125 34.45703125 23.5390625 C31.70968586 27.65706153 28.22968151 30.94446568 24.6875 34.375 C20.14207321 38.84230058 15.715319 43.30646826 11.6015625 48.1796875 C8.95053223 51.19280971 6.05127038 53.95620448 3.1953125 56.7734375 C0.55993257 59.44633174 -1.87766489 62.25368303 -4.3203125 65.1015625 C-5.98204576 66.97970753 -7.71125525 68.74305516 -9.5 70.5 C-14.28049096 75.20546083 -18.61712828 80.27116428 -22.8125 85.5 C-23.534375 86.325 -24.25625 87.15 -25 88 C-25.66 88 -26.32 88 -27 88 C-27.495 88.99 -27.495 88.99 -28 90 C-28.02693575 87.87506859 -28.04636628 85.75004088 -28.0625 83.625 C-28.07410156 82.44164062 -28.08570313 81.25828125 -28.09765625 80.0390625 C-28 77 -28 77 -27 75 C-27.99 74.67 -28.98 74.34 -30 74 C-29.57589844 73.5875 -29.15179688 73.175 -28.71484375 72.75 C-25.51462825 69.59901858 -22.43163447 66.40362098 -19.5 63 C-17.2544206 60.39352391 -14.95448488 57.91065479 -12.5 55.5 C-9.53284199 52.57869212 -6.79941029 49.52008327 -4.08203125 46.3671875 C-0.92548781 42.77832198 2.33807432 39.29004096 5.58984375 35.78759766 C8.34164872 32.81713481 11.05036145 29.82358805 13.6875 26.75 C16.98552575 22.92266148 20.55988127 19.40445449 24.1796875 15.8828125 C26.06383898 14.12246661 26.06383898 14.12246661 27 12 C18.09 12 9.18 12 0 12 C0 8.04 0 4.08 0 0 Z " fill="#2165FA" transform="translate(458,405)"/>
<path d="M0 0 C3.96 0 7.92 0 12 0 C12 3.96 12 7.92 12 12 C14.97 12 17.94 12 21 12 C21 30.48 21 48.96 21 68 C17.7 68 14.4 68 11 68 C11 73.94 11 79.88 11 86 C4 86 4 86 1.578125 84.98046875 C-0.81126154 81.98190692 -0.42724906 78.96314893 -0.25 75.3125 C-0.23195313 74.61060547 -0.21390625 73.90871094 -0.1953125 73.18554688 C-0.14826213 71.45644564 -0.07651873 69.72804795 0 68 C-3.3 68 -6.6 68 -10 68 C-10 49.52 -10 31.04 -10 12 C-6.7 12 -3.4 12 0 12 C0 8.04 0 4.08 0 0 Z " fill="#131B49" transform="translate(283,568)"/>
<path d="M0 0 C4.99256614 3.54454429 8.34023297 7.70088765 10.1953125 13.55859375 C10.97996177 21.70617282 11.3548306 29.7804033 6.1953125 36.55859375 C0.84689715 42.91887146 -5.20418873 45.88823102 -13.3828125 46.8671875 C-19.74045804 47.17391601 -23.75081328 46.26965801 -28.86328125 42.41015625 C-31.90809895 39.50624561 -33.92139646 36.29492216 -35.8046875 32.55859375 C-36.165625 31.9759375 -36.5265625 31.39328125 -36.8984375 30.79296875 C-39.0945614 25.37838741 -38.80105533 18.2777451 -37.8046875 12.55859375 C-34.81062722 5.81354783 -29.87566195 0.54443494 -23.2421875 -2.69140625 C-14.85135989 -4.52213227 -7.55727615 -4.28893646 0 0 Z " fill="#F9FAFD" transform="translate(1258.8046875,535.44140625)"/>
<path d="M0 0 C3.3103125 0.061875 3.3103125 0.061875 6.6875 0.125 C6.6875 5.405 6.6875 10.685 6.6875 16.125 C-0.9375 16.375 -0.9375 16.375 -3.30322266 16.42285156 C-8.33814409 16.66571398 -11.28238159 17.8911795 -15.3125 21.125 C-18.91028048 25.09496466 -19.42140484 28.75126299 -19.51782227 33.98535156 C-19.53776749 34.94604553 -19.55771271 35.9067395 -19.57826233 36.89654541 C-19.59497482 37.92584167 -19.61168732 38.95513794 -19.62890625 40.015625 C-19.64968735 41.07537537 -19.67046844 42.13512573 -19.69187927 43.22698975 C-19.75722186 46.60959438 -19.81618881 49.99227612 -19.875 53.375 C-19.91819975 55.66927878 -19.96181451 57.96354979 -20.00585938 60.2578125 C-20.11288765 65.88012948 -20.21419833 71.50252395 -20.3125 77.125 C-25.9225 77.125 -31.5325 77.125 -37.3125 77.125 C-37.3125 52.045 -37.3125 26.965 -37.3125 1.125 C-32.0325 1.125 -26.7525 1.125 -21.3125 1.125 C-20.9825 3.765 -20.6525 6.405 -20.3125 9.125 C-19.79300781 8.64289062 -19.27351562 8.16078125 -18.73828125 7.6640625 C-18.04089844 7.03242187 -17.34351563 6.40078125 -16.625 5.75 C-15.94050781 5.12351562 -15.25601563 4.49703125 -14.55078125 3.8515625 C-9.8207199 0.20289388 -5.8959984 -0.11020558 0 0 Z " fill="#0F1846" transform="translate(780.3125,517.875)"/>
<path d="M0 0 C0 5.28 0 10.56 0 16 C-2.330625 16.226875 -4.66125 16.45375 -7.0625 16.6875 C-13.34356513 17.4587407 -17.54211435 18.33948318 -22 23 C-24.98485554 29.37409079 -25.46550384 34.86511598 -25.51171875 41.84375 C-25.52966995 42.85344849 -25.54762115 43.86314697 -25.56611633 44.90344238 C-25.61994099 48.10225349 -25.65402571 51.30091777 -25.6875 54.5 C-25.72069763 56.67970781 -25.75518953 58.85939631 -25.79101562 61.0390625 C-25.87565151 66.35926859 -25.94259522 71.67943324 -26 77 C-31.28 77 -36.56 77 -42 77 C-42 51.92 -42 26.84 -42 1 C-37.05 1 -32.1 1 -27 1 C-27 3.97 -27 6.94 -27 10 C-26.34 10 -25.68 10 -25 10 C-24.814375 9.443125 -24.62875 8.88625 -24.4375 8.3125 C-18.79967961 -0.75703714 -9.54466705 -0.09450165 0 0 Z " fill="#2166FC" transform="translate(1120,518)"/>
<path d="M0 0 C3.3 0 6.6 0 10 0 C10 4.29 10 8.58 10 13 C13.3 13 16.6 13 20 13 C20 26.2 20 39.4 20 53 C14 52 14 52 9 50 C9 41.09 9 32.18 9 23 C6.03 23 3.06 23 0 23 C0 31.58 0 40.16 0 49 C-4.95 51.475 -4.95 51.475 -10 54 C-10 40.47 -10 26.94 -10 13 C-6.7 13 -3.4 13 0 13 C0 8.71 0 4.42 0 0 Z " fill="#0D2282" transform="translate(363,443)"/>
<path d="M0 0 C0.62329486 9.73032529 0.62329486 9.73032529 -1.6875 14.4375 C-6.76645226 20.06552818 -11.96489967 23.43201612 -19.5625 24.2890625 C-25.75527831 24.49180227 -29.15239985 23.55302083 -33.8125 19.375 C-35.71035027 15.57929947 -35.96673617 12.13190199 -35 8 C-32.17157135 3.58466419 -28.12206012 1.73121942 -23.125 0.625 C-15.47676131 -0.44468373 -7.70245113 -0.16253707 0 0 Z " fill="#F4F8FD" transform="translate(1177,560)"/>
<path d="M0 0 C4.09277172 2.37044697 7.68474248 4.59799852 10.0390625 8.79296875 C10.5340625 12.75296875 10.5340625 12.75296875 11.0390625 16.79296875 C-2.4909375 16.79296875 -16.0209375 16.79296875 -29.9609375 16.79296875 C-28.73869055 8.23724013 -26.0314607 4.89431976 -19.3359375 -0.20703125 C-12.91361527 -2.10994154 -6.28802259 -2.5633232 0 0 Z " fill="#F6F6F8" transform="translate(703.9609375,532.20703125)"/>
<path d="M0 0 C2.70921974 1.84156113 3.93102088 3.27500312 6 6 C6.495 10.455 6.495 10.455 7 15 C-6.2 15 -19.4 15 -33 15 C-33 7.98690797 -31.58294033 5.89713718 -27 1 C-19.25682469 -4.71520082 -8.29247125 -4.68782101 0 0 Z " fill="#F6F9FD" transform="translate(1347,534)"/>
<path d="M0 0 C4.38756154 0.87751231 8.66710748 1.89841716 13 3 C12.01 3.33 11.02 3.66 10 4 C10 12.91 10 21.82 10 31 C5.05 33.475 5.05 33.475 0 36 C0 24.12 0 12.24 0 0 Z " fill="#0C1649" transform="translate(353,461)"/>
<path d="M0 0 C2.97 0 5.94 0 9 0 C9 11.22 9 22.44 9 34 C6.03 34 3.06 34 0 34 C0 22.78 0 11.56 0 0 Z " fill="#EAEBEF" transform="translate(284,592)"/>
<path d="M0 0 C2.97 0.495 2.97 0.495 6 1 C6.66 1 7.32 1 8 1 C8 10.57 8 20.14 8 30 C5.36 29.67 2.72 29.34 0 29 C0 19.43 0 9.86 0 0 Z " fill="#091242" transform="translate(373,465)"/>
<path d="M0 0 C12.21 0 24.42 0 37 0 C37 0.66 37 1.32 37 2 C36.2793335 1.98428955 35.55866699 1.9685791 34.81616211 1.95239258 C31.52335585 1.88969513 28.23067562 1.85089905 24.9375 1.8125 C23.80376953 1.78736328 22.67003906 1.76222656 21.50195312 1.73632812 C15.17016863 1.68094809 10.58008156 1.93402112 5 5 C4.195625 5.391875 3.39125 5.78375 2.5625 6.1875 C2.046875 6.455625 1.53125 6.72375 1 7 C1 8.32 1 9.64 1 11 C5.62 11 10.24 11 15 11 C15 11.33 15 11.66 15 12 C10.05 12 5.1 12 0 12 C0 8.04 0 4.08 0 0 Z " fill="#598EFA" transform="translate(458,405)"/>
<path d="M0 0 C3 0.25 3 0.25 5 2.25 C5.25 5.75 5.25 5.75 5 9.25 C3 11.25 3 11.25 -0.625 11.375 C-1.73875 11.33375 -2.8525 11.2925 -4 11.25 C-5.50662097 8.23675805 -5.17770373 5.56713623 -5 2.25 C-3 0.25 -3 0.25 0 0 Z " fill="#EBECF0" transform="translate(331,330.75)"/>
<path d="M0 0 C0.8146875 0.00257813 1.629375 0.00515625 2.46875 0.0078125 C3.2834375 0.00523437 4.098125 0.00265625 4.9375 0 C6.96875 0.1328125 6.96875 0.1328125 7.96875 1.1328125 C8.42750252 6.40846642 8.42750252 6.40846642 6.78125 9.0078125 C4.31367892 10.53940834 2.82355169 10.56103275 -0.03125 10.1328125 C-1.84375 9.0078125 -1.84375 9.0078125 -3.03125 7.1328125 C-3.28125 4.0078125 -3.28125 4.0078125 -3.03125 1.1328125 C-2.03125 0.1328125 -2.03125 0.1328125 0 0 Z " fill="#EFEFF3" transform="translate(171.03125,529.8671875)"/>
<path d="M0 0 C1 1 1 1 1.1875 4.4375 C1 8 1 8 -1 10 C-4 10.25 -4 10.25 -7 10 C-9 8 -9 8 -9.125 4.375 C-9.08375 3.26125 -9.0425 2.1475 -9 1 C-6.01787087 -0.49106457 -3.28390342 -0.11941467 0 0 Z " fill="#E9EAEF" transform="translate(478,626)"/>
<path d="M0 0 C0.1875 2.875 0.1875 2.875 0 6 C-3 8 -3 8 -8 7 C-8.33 15.91 -8.66 24.82 -9 34 C-9.33 34 -9.66 34 -10 34 C-10 25.09 -10 16.18 -10 7 C-12.97 7 -15.94 7 -19 7 C-19 6.67 -19 6.34 -19 6 C-18.443125 5.98582031 -17.88625 5.97164063 -17.3125 5.95703125 C-11.71586475 5.60724155 -8.19339458 4.31367331 -3.62890625 1.05859375 C-2 0 -2 0 0 0 Z " fill="#4C578D" transform="translate(382,459)"/>
<path d="M0 0 C0.33 0 0.66 0 1 0 C1 15.51 1 31.02 1 47 C2.32 47.33 3.64 47.66 5 48 C3.625 49.5 3.625 49.5 2 51 C1.34 51 0.68 51 0 51 C0 34.17 0 17.34 0 0 Z " fill="#EFEDEF" transform="translate(140,569)"/>
<path d="M0 0 C0.99 0 1.98 0 3 0 C2.67 3.96 2.34 7.92 2 12 C1.34 12 0.68 12 0 12 C0 10.35 0 8.7 0 7 C-2.31 7.33 -4.62 7.66 -7 8 C-6.02133662 6.85373678 -5.04205413 5.70800212 -4.0625 4.5625 C-3.51722656 3.92441406 -2.97195313 3.28632813 -2.41015625 2.62890625 C-1.63204305 1.73008851 -0.84063472 0.84063472 0 0 Z " fill="#15359F" transform="translate(428,480)"/>
<path d="M0 0 C0.66 0.99 1.32 1.98 2 3 C-1.04929113 7.14703594 -4.5789095 11.27143834 -9 14 C-9.99 13.67 -10.98 13.34 -12 13 C-11.30132812 12.31292969 -10.60265625 11.62585938 -9.8828125 10.91796875 C-8.97273438 10.01691406 -8.06265625 9.11585938 -7.125 8.1875 C-6.22007812 7.29417969 -5.31515625 6.40085937 -4.3828125 5.48046875 C-1.90168486 3.04361667 -1.90168486 3.04361667 0 0 Z " fill="#192153" transform="translate(453,496)"/>
<path d="M0 0 C0.66 0 1.32 0 2 0 C0.76075855 4.95696581 -0.78577758 7.11658466 -5 10 C-5.8125 8.3125 -5.8125 8.3125 -6 6 C-3.625 3.3125 -3.625 3.3125 -1 1 C-0.67 0.67 -0.34 0.34 0 0 Z " fill="#212B5A" transform="translate(338,660)"/>
<path d="M0 0 C0.78375 0.04125 1.5675 0.0825 2.375 0.125 C2.375 1.115 2.375 2.105 2.375 3.125 C0 5.1875 0 5.1875 -2.625 7.125 C-3.285 7.785 -3.945 8.445 -4.625 9.125 C-4.75 5.75 -4.75 5.75 -4.625 2.125 C-2.625 0.125 -2.625 0.125 0 0 Z " fill="#2C3662" transform="translate(231.625,635.875)"/>
<path d="M0 0 C4.35647645 1.44950405 7.31757289 3.67747112 10.8125 6.625 C11.78832031 7.44226563 12.76414062 8.25953125 13.76953125 9.1015625 C14.50558594 9.72804688 15.24164063 10.35453125 16 11 C15.01 11.66 14.02 12.32 13 13 C3.40546697 4.738041 3.40546697 4.738041 0 0 Z " fill="#2D355F" transform="translate(299,553)"/>
<path d="M0 0 C0.33 0.99 0.66 1.98 1 3 C-0.18244247 4.53397943 -1.37312242 6.06670203 -2.67578125 7.5 C-4.21271929 9.17302042 -4.21271929 9.17302042 -6 12 C-6.9375 9.9375 -6.9375 9.9375 -7 7 C-4.92608855 4.37232162 -2.52709628 2.18678905 0 0 Z " fill="#313865" transform="translate(186,619)"/>
<path d="M0 0 C0.66 0.99 1.32 1.98 2 3 C-0.31 5.31 -2.62 7.62 -5 10 C-5.99 9.67 -6.98 9.34 -8 9 C-7.04270084 7.87411986 -6.08412105 6.7493285 -5.125 5.625 C-4.59132812 4.99851562 -4.05765625 4.37203125 -3.5078125 3.7265625 C-2.38567993 2.44163349 -1.20628025 1.20628025 0 0 Z " fill="#222A56" transform="translate(191,574)"/>
<path d="M0 0 C0.886875 0.12375 1.77375 0.2475 2.6875 0.375 C2.171875 0.74625 1.65625 1.1175 1.125 1.5 C-2.12811018 4.00239244 -5.21372527 6.68533317 -8.3125 9.375 C-8.3125 5.77446739 -7.13486371 4.28687623 -4.82421875 1.60546875 C-3.3125 0.375 -3.3125 0.375 0 0 Z " fill="#232B5B" transform="translate(473.3125,477.625)"/>
<path d="M0 0 C0.89234179 2.48946307 1.08442558 3.72666635 0.29296875 6.2890625 C-0.25423828 7.44535156 -0.25423828 7.44535156 -0.8125 8.625 C-1.34810547 9.78902344 -1.34810547 9.78902344 -1.89453125 10.9765625 C-3 13 -3 13 -5 15 C-4.56826496 8.84777564 -3.34594658 5.18082051 0 0 Z " fill="#161D49" transform="translate(664,532)"/>
<path d="M0 0 C0.57234375 0.21527344 1.1446875 0.43054688 1.734375 0.65234375 C-0.85991181 4.54377396 -2.78607307 4.70928019 -7.265625 5.65234375 C-8.255625 5.32234375 -9.245625 4.99234375 -10.265625 4.65234375 C-9.02618224 3.78292881 -7.77355441 2.93228918 -6.515625 2.08984375 C-5.81953125 1.61417969 -5.1234375 1.13851562 -4.40625 0.6484375 C-2.265625 -0.34765625 -2.265625 -0.34765625 0 0 Z " fill="#343C65" transform="translate(413.265625,662.34765625)"/>
<path d="M0 0 C0.33 0.99 0.66 1.98 1 3 C-2.732388 6.57011026 -7.0949989 7.10913442 -12 8 C-9.69716746 5.45868642 -7.32686207 3.92889705 -4.3125 2.3125 C-3.50425781 1.87550781 -2.69601563 1.43851562 -1.86328125 0.98828125 C-1.24839844 0.66214844 -0.63351563 0.33601563 0 0 Z " fill="#323960" transform="translate(233,434)"/>
<path d="M0 0 C0.66 1.32 1.32 2.64 2 4 C0.56967163 5.17544805 -0.86953242 6.34010262 -2.3125 7.5 C-3.11300781 8.1496875 -3.91351563 8.799375 -4.73828125 9.46875 C-7 11 -7 11 -10 11 C-9.44570313 10.45730469 -8.89140625 9.91460937 -8.3203125 9.35546875 C-7.23363281 8.28232422 -7.23363281 8.28232422 -6.125 7.1875 C-5.40570313 6.47980469 -4.68640625 5.77210938 -3.9453125 5.04296875 C-1.84641063 2.95600806 -1.84641063 2.95600806 0 0 Z " fill="#477BF8" transform="translate(462,442)"/>
<path d="M0 0 C6.93 0.495 6.93 0.495 14 1 C13.67 1.66 13.34 2.32 13 3 C9.04 3 5.08 3 1 3 C0.67 2.01 0.34 1.02 0 0 Z " fill="#151A44" transform="translate(811,593)"/>
<path d="M0 0 C0.66 1.32 1.32 2.64 2 4 C1.01 5.485 1.01 5.485 0 7 C-0.66 7 -1.32 7 -2 7 C-2.103125 8.11375 -2.20625 9.2275 -2.3125 10.375 C-2.6528125 12.169375 -2.6528125 12.169375 -3 14 C-3.99 14.66 -4.98 15.32 -6 16 C-4.43551329 10.3856009 -2.83604813 5.13189662 0 0 Z " fill="#333A65" transform="translate(624,546)"/>
<path d="M0 0 C0.99 0.33 1.98 0.66 3 1 C-1.30769231 6.78461538 -1.30769231 6.78461538 -4.8125 7.875 C-5.8953125 7.936875 -5.8953125 7.936875 -7 8 C-6.02133662 6.85373678 -5.04205413 5.70800212 -4.0625 4.5625 C-3.51722656 3.92441406 -2.97195312 3.28632812 -2.41015625 2.62890625 C-1.63204305 1.73008851 -0.84063472 0.84063472 0 0 Z " fill="#2B345F" transform="translate(164,598)"/>
<path d="M0 0 C0.33 0.99 0.66 1.98 1 3 C-3.455 6.96 -3.455 6.96 -8 11 C-8.66 10.67 -9.32 10.34 -10 10 C-6.7 6.7 -3.4 3.4 0 0 Z " fill="#151E53" transform="translate(256,556)"/>
<path d="M0 0 C0.33 0 0.66 0 1 0 C1 4.29 1 8.58 1 13 C2.98 13.495 2.98 13.495 5 14 C3.625 15.5 3.625 15.5 2 17 C1.34 17 0.68 17 0 17 C0 11.39 0 5.78 0 0 Z " fill="#E3E3E7" transform="translate(140,603)"/>
<path d="M0 0 C1.1446875 0.12375 1.1446875 0.12375 2.3125 0.25 C1.69375 0.4975 1.075 0.745 0.4375 1 C-2.03818687 2.45628639 -2.63875002 3.62812506 -3.6875 6.25 C-4.3475 6.25 -5.0075 6.25 -5.6875 6.25 C-6.0175 7.24 -6.3475 8.23 -6.6875 9.25 C-8.0075 8.92 -9.3275 8.59 -10.6875 8.25 C-9.924375 7.6725 -9.16125 7.095 -8.375 6.5 C-5.66596608 4.4467417 -5.66596608 4.4467417 -4.1875 2 C-2.6875 0.25 -2.6875 0.25 0 0 Z " fill="#3B436C" transform="translate(716.6875,570.75)"/>
<path d="M0 0 C0.33 0.66 0.66 1.32 1 2 C-0.98 4.97 -2.96 7.94 -5 11 C-6.32 10.67 -7.64 10.34 -9 10 C-8.27683594 9.29423828 -8.27683594 9.29423828 -7.5390625 8.57421875 C-6.90742188 7.95160156 -6.27578125 7.32898438 -5.625 6.6875 C-4.68527344 5.76517578 -4.68527344 5.76517578 -3.7265625 4.82421875 C-1.81913393 2.91187472 -1.81913393 2.91187472 0 0 Z " fill="#3270F8" transform="translate(437,469)"/>
<path d="M0 0 C0.66 0.66 1.32 1.32 2 2 C-0.97 4.64 -3.94 7.28 -7 10 C-7.66 9.67 -8.32 9.34 -9 9 C-6.03 6.03 -3.06 3.06 0 0 Z " fill="#346FFB" transform="translate(447,459)"/>
<path d="M0 0 C0.99 0.33 1.98 0.66 3 1 C0.69 3.31 -1.62 5.62 -4 8 C-4.66 6.68 -5.32 5.36 -6 4 C-3.1875 1.9375 -3.1875 1.9375 0 0 Z " fill="#233060" transform="translate(424,499)"/>
<path d="M0 0 C0.33 0 0.66 0 1 0 C1 2.31 1 4.62 1 7 C-0.98 7.33 -2.96 7.66 -5 8 C-1.125 1.125 -1.125 1.125 0 0 Z " fill="#262C55" transform="translate(291,645)"/>
<path d="M0 0 C0.66 0.66 1.32 1.32 2 2 C1.51789063 2.39832031 1.03578125 2.79664063 0.5390625 3.20703125 C-0.09257812 3.73683594 -0.72421875 4.26664062 -1.375 4.8125 C-2.00148438 5.33457031 -2.62796875 5.85664062 -3.2734375 6.39453125 C-5.2221048 8.08225739 -5.2221048 8.08225739 -7 11 C-7.99 10.67 -8.98 10.34 -10 10 C-6.7 6.7 -3.4 3.4 0 0 Z " fill="#F3F3F7" transform="translate(458,507)"/>
<path d="M0 0 C0.33 0 0.66 0 1 0 C1 2.97 1 5.94 1 9 C2.32 8.34 3.64 7.68 5 7 C4 9 3 11 2 13 C1.01 12.67 0.02 12.34 -1 12 C-0.67 11.67 -0.34 11.34 0 11 C0.07226502 9.14712498 0.0838122 7.29166122 0.0625 5.4375 C0.05347656 4.42558594 0.04445313 3.41367187 0.03515625 2.37109375 C0.02355469 1.58863281 0.01195312 0.80617188 0 0 Z " fill="#151D4B" transform="translate(285,639)"/>
<path d="M0 0 C0 3 0 3 -1.3125 4.60546875 C-1.869375 5.12753906 -2.42625 5.64960938 -3 6.1875 C-3.556875 6.71730469 -4.11375 7.24710937 -4.6875 7.79296875 C-5.120625 8.19128906 -5.55375 8.58960938 -6 9 C-6.66 8.67 -7.32 8.34 -8 8 C-7.67 7.01 -7.34 6.02 -7 5 C-6.01 5 -5.02 5 -4 5 C-3.566875 4.0409375 -3.566875 4.0409375 -3.125 3.0625 C-2 1 -2 1 0 0 Z " fill="#585E7C" transform="translate(466,498)"/>
<path d="M0 0 C0.66 0 1.32 0 2 0 C2 2.97 2 5.94 2 9 C1.67 9 1.34 9 1 9 C0.67 7.35 0.34 5.7 0 4 C-1.65 4.66 -3.3 5.32 -5 6 C-4.67 5.34 -4.34 4.68 -4 4 C-3.34 4 -2.68 4 -2 4 C-1.34 2.68 -0.68 1.36 0 0 Z " fill="#BBBDCD" transform="translate(844,586)"/>
<path d="M0 0 C0 4.38968456 -2.12805101 5.76905739 -5 9 C-5.99 8.67 -6.98 8.34 -8 8 C-5.36 5.36 -2.72 2.72 0 0 Z " fill="#2D3462" transform="translate(340,528)"/>
<path d="M0 0 C0.556875 0.226875 1.11375 0.45375 1.6875 0.6875 C1.048125 0.955625 0.40875 1.22375 -0.25 1.5 C-2.64381686 2.57417752 -2.64381686 2.57417752 -3.3125 5.6875 C-4.3025 5.3575 -5.2925 5.0275 -6.3125 4.6875 C-6.6425 4.0275 -6.9725 3.3675 -7.3125 2.6875 C-2.88173077 -0.38942308 -2.88173077 -0.38942308 0 0 Z " fill="#242B51" transform="translate(323.3125,715.3125)"/>
<path d="M0 0 C0.33 0 0.66 0 1 0 C0.67 3.3 0.34 6.6 0 10 C-0.99 9.67 -1.98 9.34 -3 9 C-3 7.35 -3 5.7 -3 4 C-2.01 4 -1.02 4 0 4 C0 2.68 0 1.36 0 0 Z " fill="#373E62" transform="translate(278,709)"/>
<path d="M0 0 C0.66 0.33 1.32 0.66 2 1 C0.02 3.31 -1.96 5.62 -4 8 C-4.99 7.67 -5.98 7.34 -7 7 C-4.69 4.69 -2.38 2.38 0 0 Z " fill="#232A58" transform="translate(181,583)"/>
<path d="M0 0 C0.66 1.32 1.32 2.64 2 4 C-0.97 6.475 -0.97 6.475 -4 9 C-4.66 8.67 -5.32 8.34 -6 8 C-5.38125 7.4225 -4.7625 6.845 -4.125 6.25 C-2.18652947 4.19750179 -1.09985751 2.56633418 0 0 Z " fill="#4680FB" transform="translate(1176,571)"/>
<path d="M0 0 C0 0.99 0 1.98 0 3 C-2.31 3.66 -4.62 4.32 -7 5 C-7.66 4.34 -8.32 3.68 -9 3 C-2.25 0 -2.25 0 0 0 Z " fill="#3275FC" transform="translate(1233,518)"/>
<path d="M0 0 C0 0.66 0 1.32 0 2 C-6.75 6 -6.75 6 -9 6 C-9 5.34 -9 4.68 -9 4 C-2.25 0 -2.25 0 0 0 Z " fill="#202856" transform="translate(406,678)"/>
<path d="M0 0 C1.2065625 0.0309375 1.2065625 0.0309375 2.4375 0.0625 C2.7675 0.7225 3.0975 1.3825 3.4375 2.0625 C1.4575 3.0525 -0.5225 4.0425 -2.5625 5.0625 C-3.125 3.125 -3.125 3.125 -3.5625 1.0625 C-2.5625 0.0625 -2.5625 0.0625 0 0 Z " fill="#384068" transform="translate(231.5625,635.9375)"/>
<path d="M0 0 C0.66 0 1.32 0 2 0 C2.6875 2.3125 2.6875 2.3125 3 5 C1.5625 6.8125 1.5625 6.8125 0 8 C-0.79953138 4.71303767 -1.09658936 3.28976808 0 0 Z " fill="#E6E7EC" transform="translate(612,567)"/>
<path d="M0 0 C0.66 0.33 1.32 0.66 2 1 C1.25 5.75 1.25 5.75 -1 8 C-1.66 8 -2.32 8 -3 8 C-1.125 2.25 -1.125 2.25 0 0 Z " fill="#1A2351" transform="translate(845,566)"/>
<path d="M0 0 C0 0.66 0 1.32 0 2 C-2.5 3.625 -2.5 3.625 -5 5 C-5.66 4.34 -6.32 3.68 -7 3 C-4.49955934 -0.00052879 -4.2621484 0 0 0 Z " fill="#08103C" transform="translate(168,521)"/>
<path d="M0 0 C0 3 0 3 -2.3125 5.6875 C-5 8 -5 8 -8 8 C-5.36 5.36 -2.72 2.72 0 0 Z " fill="#1D2453" transform="translate(358,510)"/>
<path d="M0 0 C0.66 0.33 1.32 0.66 2 1 C0.35 2.98 -1.3 4.96 -3 7 C-3.99 6.67 -4.98 6.34 -6 6 C-4.02 4.02 -2.04 2.04 0 0 Z " fill="#202757" transform="translate(240,570)"/>
<path d="M0 0 C2.64 0.33 5.28 0.66 8 1 C5.36095629 2.41377341 2.92879371 3.37240135 0 4 C0 2.68 0 1.36 0 0 Z " fill="#347AFA" transform="translate(1353,571)"/>
<path d="M0 0 C7.42857143 -0.28571429 7.42857143 -0.28571429 11 2 C11 2.66 11 3.32 11 4 C7.37 3.01 3.74 2.02 0 1 C0 0.67 0 0.34 0 0 Z " fill="#313962" transform="translate(366,518)"/>
<path d="M0 0 C0.99 0.33 1.98 0.66 3 1 C-0.3340947 3.19097652 -3.04179141 4.43454163 -7 5 C-2.25 1.125 -2.25 1.125 0 0 Z " fill="#1C2555" transform="translate(235,388)"/>
<path d="M0 0 C0.33 0.99 0.66 1.98 1 3 C-1.3125 5.0625 -1.3125 5.0625 -4 7 C-4.99 6.67 -5.98 6.34 -7 6 C-6.34 6 -5.68 6 -5 6 C-5 5.34 -5 4.68 -5 4 C-3.37373596 2.61767557 -1.7074998 1.28062485 0 0 Z " fill="#2A3056" transform="translate(343,344)"/>
<path d="M0 0 C1.23076923 4.92307692 1.23076923 4.92307692 0 8 C-0.99 8.66 -1.98 9.32 -3 10 C-2.01 6.7 -1.02 3.4 0 0 Z " fill="#B8BBCD" transform="translate(628,580)"/>
<path d="M0 0 C0.66 0.33 1.32 0.66 2 1 C0.515 3.475 0.515 3.475 -1 6 C-2.32 5.67 -3.64 5.34 -5 5 C-3.35 3.35 -1.7 1.7 0 0 Z " fill="#212959" transform="translate(229,580)"/>
<path d="M0 0 C3.39914975 1.13304992 4.05254451 2.12518475 6 5 C5.67 5.66 5.34 6.32 5 7 C4.34 6.67 3.68 6.34 3 6 C3 5.34 3 4.68 3 4 C2.01 3.67 1.02 3.34 0 3 C0 2.01 0 1.02 0 0 Z " fill="#232951" transform="translate(981,524)"/>
<path d="M0 0 C1.010625 0.0825 2.02125 0.165 3.0625 0.25 C3.7225 1.24 4.3825 2.23 5.0625 3.25 C1.6875 3.375 1.6875 3.375 -1.9375 3.25 C-2.5975 2.59 -3.2575 1.93 -3.9375 1.25 C-2.9375 0.25 -2.9375 0.25 0 0 Z " fill="#296FFA" transform="translate(1164.9375,516.75)"/>
<path d="M0 0 C0.33 0 0.66 0 1 0 C1.05399736 1.45792884 1.09279177 2.91642712 1.125 4.375 C1.14820313 5.18710937 1.17140625 5.99921875 1.1953125 6.8359375 C1 9 1 9 -1 11 C-2.60080151 6.99799622 -1.29279692 3.95443764 0 0 Z " fill="#222A57" transform="translate(645,489)"/>
<path d="M0 0 C0.33 0.99 0.66 1.98 1 3 C-0.65 4.32 -2.3 5.64 -4 7 C-4.66 6.67 -5.32 6.34 -6 6 C-4.02 4.02 -2.04 2.04 0 0 Z " fill="#171F51" transform="translate(417,492)"/>
<path d="M0 0 C1.65 0 3.3 0 5 0 C5 0.99 5 1.98 5 3 C3.35 3.66 1.7 4.32 0 5 C0 3.35 0 1.7 0 0 Z " fill="#141B42" transform="translate(353,492)"/>
<path d="M0 0 C0.66 0.33 1.32 0.66 2 1 C0.35 2.65 -1.3 4.3 -3 6 C-3.66 5.34 -4.32 4.68 -5 4 C-3.35 2.68 -1.7 1.36 0 0 Z " fill="#343E67" transform="translate(174,469)"/>
<path d="M0 0 C-0.33 0.99 -0.66 1.98 -1 3 C-3.5625 4.1875 -3.5625 4.1875 -6 5 C-6 4.01 -6 3.02 -6 2 C-2.25 0 -2.25 0 0 0 Z " fill="#DADCE6" transform="translate(320,440)"/>
<path d="M0 0 C-1 3 -1 3 -3.0625 4.1875 C-3.701875 4.455625 -4.34125 4.72375 -5 5 C-5.66 4.34 -6.32 3.68 -7 3 C-3.375 0 -3.375 0 0 0 Z " fill="#F0F1F4" transform="translate(270,410)"/>
</svg>
